# Created by MKDS Course Modifier
mtllib Nacrene Gym.mtl
g polygon0
usemtl c4m_kanban2
v -57.125 16.40625 44.17188
v -39.90625 16.40625 44.17188
v -39.90625 30.95703 31.37109
v -57.125 30.95703 31.37109
vn 0 0.6601563 0.75
vn 0 0.6601563 0.75
vn 0 0.6601563 0.75
vn 0 0.6601563 0.75
vt 0 -1.013672
vt 1 -1.013672
vt 1 -0.01367188
vt 0 -0.01367188
f 1/1/1 2/2/2 3/3/3 4/4/4
g polygon1
usemtl c4m_hashira_2
v -58.49219 85 25.44531
v -47.50781 85 25.44531
v -47.50781 85 14.55469
v -58.49219 85 14.55469
v 47.50781 85 25.44531
v 58.49219 85 25.44531
v 58.49219 85 14.55469
v 47.50781 85 14.55469
vn 0 0.9980469 0
vn 0 0.9980469 0
vn 0 0.9980469 0
vn 0 0.9980469 0
vn 0 0.9980469 0
vn 0 0.9980469 0
vn 0 0.9980469 0
vn 0 0.9980469 0
vt 0.5058594 -0.4941406
vt 0.9921875 -0.4941406
vt 0.9921875 -0.00390625
vt 0.5058594 -0.00390625
vt 0.5058594 -0.4941406
vt 0.9921875 -0.4941406
vt 0.9921875 -0.00390625
vt 0.5058594 -0.00390625
f 5/5/5 6/6/6 7/7/7 8/8/8
f 9/9/9 10/10/10 11/11/11 12/12/12
g polygon2
usemtl h_kage
v 80 2.296875 -60
v -80 2.296875 -60
v 0 2.296875 10
v -80 2.296875 56
v 80 2.296875 56
vn 0 0.9980469 0
vn 0 0.9980469 0
vn 0 0.9980469 0
vn 0 0.9980469 0
vn 0 0.9980469 0
vt 0.625 -0.234375
vt 0.625 -0.234375
vt 0.625 -0.875
vt 0.625 -0.234375
vt 0.625 -0.234375
f 13/13/13 14/14/14 15/15/15
f 14/14/14 16/16/16 15/15/15
f 15/15/15 16/16/16 17/17/17
v 0 2.296875 10
v 80 2.296875 56
v 80 2.296875 -60
vn 0 0.9980469 0
vn 0 0.9980469 0
vn 0 0.9980469 0
vt 0.625 -0.875
vt 0.625 -0.234375
vt 0.625 -0.234375
f 18/18/18 19/19/19 20/20/20
g polygon3
usemtl c4m_kanban
v -55.0625 5 36
v -55.0625 5 47
v -55.0625 16 45
v -55.0625 16 36
v -41.0625 5 47
v -41.0625 5 36
v -41.0625 16 36
v -41.0625 16 45
v -55.0625 5 36
v -41.0625 5 36
v -41.0625 5 47
v -55.0625 5 47
v -55.0625 16 36
v -41.0625 16 36
v -41.0625 5 36
v -55.0625 5 36
v -55.0625 16 45
v -41.0625 16 45
v -41.0625 16 36
v -55.0625 16 36
v -55.0625 5 47
v -41.0625 5 47
v -41.0625 16 45
v -55.0625 16 45
vn -1 0 0
vn -1 0 0
vn -1 0 0
vn -1 0 0
vn 0.9980469 0 0
vn 0.9980469 0 0
vn 0.9980469 0 0
vn 0.9980469 0 0
vn 0 -1 0
vn 0 -1 0
vn 0 -1 0
vn 0 -1 0
vn 0 0 -1
vn 0 0 -1
vn 0 0 -1
vn 0 0 -1
vn 0 0.9980469 0
vn 0 0.9980469 0
vn 0 0.9980469 0
vn 0 0.9980469 0
vn 0 0.1328125 0.9902344
vn 0 0.1328125 0.9902344
vn 0 0.1328125 0.9902344
vn 0 0.1328125 0.9902344
vt -0.8359375 -1
vt -0.8359375 -1
vt -0.8359375 0
vt -0.8359375 0
vt -0.8359375 -1
vt -0.8359375 -1
vt -0.8359375 0
vt -0.8359375 0
vt 0 2
vt 1 2
vt 1 3
vt 0 3
vt 0 1
vt 1 1
vt 1 2
vt 0 2
vt 0.0390625 -0.7265625
vt 0.0390625 -0.7265625
vt 0.0390625 -0.7265625
vt 0.0390625 -0.7265625
vt 0.00390625 -0.9882813
vt 0.9921875 -0.9882813
vt 0.9921875 -0.01171875
vt 0.00390625 -0.01171875
f 21/21/21 22/22/22 23/23/23 24/24/24
f 25/25/25 26/26/26 27/27/27 28/28/28
f 29/29/29 30/30/30 31/31/31 32/32/32
f 33/33/33 34/34/34 35/35/35 36/36/36
f 37/37/37 38/38/38 39/39/39 40/40/40
f 41/41/41 42/42/42 43/43/43 44/44/44
g polygon4
usemtl h_mado
v -40 7 26
v -24 7 26
v -24 35 26
v -40 35 26
v -62 31 28.91797
v -62 63 28.91797
v -62 63 11.35156
v -62 31 11.35156
v -62 31 28.91797
v -45 31 28.91797
v -45 63 28.91797
v -62 63 28.91797
v -36 41 18.69922
v 36 41 18.69922
v 36 63 18.69922
v -36 63 18.69922
v 62 31 29
v 62 63 29
v 45.43359 63 29
v 45.43359 31 29
v 62 31 29
v 62 31 13
v 62 63 13
v 62 63 29
v 24 7 25
v 40 7 25
v 40 35 25
v 24 35 25
vn 0 0 0.9980469
vn 0 0 0.9980469
vn 0 0 0.9980469
vn 0 0 0.9980469
vn 0 0 0.9980469
vn 0 0 0.9980469
vn 0 0 0.9980469
vn 0 0 0.9980469
vn 0 0 0.9980469
vn 0 0 0.9980469
vn 0 0 0.9980469
vn 0 0 0.9980469
vn 0 0 0.9980469
vn 0 0 0.9980469
vn 0 0 0.9980469
vn 0 0 0.9980469
vn 0 0 0.9980469
vn 0 0 0.9980469
vn 0 0 0.9980469
vn 0 0 0.9980469
vn 0 0 0.9980469
vn 0 0 0.9980469
vn 0 0 0.9980469
vn 0 0 0.9980469
vn 0 0 0.9980469
vn 0 0 0.9980469
vn 0 0 0.9980469
vn 0 0 0.9980469
vt 0 -1
vt 1 -1
vt 1 0
vt 0 0
vt 0 -1
vt 1 -1
vt 1 0
vt 0 0
vt 0 -1
vt 1 -1
vt 1 0
vt 0 0
vt 0 -1
vt 1 -1
vt 1 0
vt 0 0
vt 0 -1
vt 1 -1
vt 1 0
vt 0 0
vt 0 -1
vt 1 -1
vt 1 0
vt 0 0
vt 0 -1
vt 1 -1
vt 1 0
vt 0 0
f 45/45/45 46/46/46 47/47/47 48/48/48
f 49/49/49 50/50/50 51/51/51 52/52/52
f 53/53/53 54/54/54 55/55/55 56/56/56
f 57/57/57 58/58/58 59/59/59 60/60/60
f 61/61/61 62/62/62 63/63/63 64/64/64
f 65/65/65 66/66/66 67/67/67 68/68/68
f 69/69/69 70/70/70 71/71/71 72/72/72
g polygon5
usemtl c4m_yane_001_2
v -63.98438 65 9.109375
v -63.98438 65 30.89063
v -58.49219 85 25.44531
v -58.49219 85 14.55469
v -42.01563 65 9.109375
v -63.98438 65 9.109375
v -58.49219 85 14.55469
v -47.50781 85 14.55469
v -42.01563 65 30.89063
v -42.01563 65 9.109375
v -47.50781 85 14.55469
v -47.50781 85 25.44531
v -63.98438 65 30.89063
v -42.01563 65 30.89063
v -47.50781 85 25.44531
v -58.49219 85 25.44531
v 42.01563 65 9.109375
v 42.01563 65 30.89063
v 47.50781 85 25.44531
v 47.50781 85 14.55469
v 63.98438 65 9.109375
v 42.01563 65 9.109375
v 47.50781 85 14.55469
v 58.49219 85 14.55469
v 63.98438 65 30.89063
v 63.98438 65 9.109375
v 58.49219 85 14.55469
v 58.49219 85 25.44531
v 42.01563 65 30.89063
v 63.98438 65 30.89063
v 58.49219 85 25.44531
v 47.50781 85 25.44531
vn -0.9902344 0.1328125 0
vn -0.9902344 0.1328125 0
vn -0.9628906 0.2714844 0
vn -0.9628906 0.2714844 0
vn 0 0.2617188 -0.9648438
vn 0 0.2617188 -0.9648438
vn 0 0.2617188 -0.9648438
vn 0 0.2617188 -0.9648438
vn 0.9902344 0.1328125 0
vn 0.9902344 0.1328125 0
vn 0.9628906 0.2714844 0
vn 0.9628906 0.2714844 0
vn 0 0.1328125 0.9902344
vn 0 0.1328125 0.9902344
vn 0 0.2617188 0.9648438
vn 0 0.2617188 0.9648438
vn -0.9902344 0.1328125 0
vn -0.9902344 0.1328125 0
vn -0.9628906 0.2714844 0
vn -0.9628906 0.2714844 0
vn 0 0.2617188 -0.9648438
vn 0 0.2617188 -0.9648438
vn 0 0.2617188 -0.9648438
vn 0 0.2617188 -0.9648438
vn 0.9902344 0.1328125 0
vn 0.9902344 0.1328125 0
vn 0.9628906 0.2714844 0
vn 0.9628906 0.2714844 0
vn 0 0.1328125 0.9902344
vn 0 0.1328125 0.9902344
vn 0 0.2617188 0.9648438
vn 0 0.2617188 0.9648438
vt -1.177734 -0.9980469
vt 0.7324219 -0.9980469
vt 0.2558594 -0.4472656
vt -0.6992188 -0.4472656
vt -1.177734 -0.9980469
vt 0.7324219 -0.9980469
vt 0.2558594 -0.4472656
vt -0.6992188 -0.4472656
vt 0.7324219 -0.9980469
vt -1.177734 -0.9980469
vt -0.6992188 -0.4472656
vt 0.2558594 -0.4472656
vt -1.177734 -0.9980469
vt 0.7324219 -0.9980469
vt 0.2558594 -0.4472656
vt -0.6992188 -0.4472656
vt -1.177734 -0.9980469
vt 0.7324219 -0.9980469
vt 0.2558594 -0.4472656
vt -0.6992188 -0.4472656
vt -1.177734 -0.9980469
vt 0.7324219 -0.9980469
vt 0.2558594 -0.4472656
vt -0.6992188 -0.4472656
vt 0.7324219 -0.9980469
vt -1.177734 -0.9980469
vt -0.6992188 -0.4472656
vt 0.2558594 -0.4472656
vt -1.177734 -0.9980469
vt 0.7324219 -0.9980469
vt 0.2558594 -0.4472656
vt -0.6992188 -0.4472656
f 73/73/73 74/74/74 75/75/75 76/76/76
f 77/77/77 78/78/78 79/79/79 80/80/80
f 81/81/81 82/82/82 83/83/83 84/84/84
f 85/85/85 86/86/86 87/87/87 88/88/88
f 89/89/89 90/90/90 91/91/91 92/92/92
f 93/93/93 94/94/94 95/95/95 96/96/96
f 97/97/97 98/98/98 99/99/99 100/100/100
f 101/101/101 102/102/102 103/103/103 104/104/104
g polygon6
usemtl c4m_yane_001
v 40 70 20
v 40 70 -42
v 0 85 20
v 0 85 -42
v -40 70 20
v -40 70 -42
vn 0.3886719 0.921875 0
vn 0.3886719 0.921875 0
vn 0 0.9980469 0
vn 0 0.9980469 0
vn -0.3886719 0.921875 0
vn -0.3886719 0.921875 0
vt 1.957031 -0.9970703
vt -1.525391 -0.9970703
vt 1.957031 -0.005859375
vt -1.525391 -0.005859375
vt 1.957031 -0.9970703
vt -1.525391 -0.9970703
f 105/105/105 106/106/106 107/107/107
f 106/106/106 108/108/108 107/107/107
f 107/107/107 108/108/108 109/109/109
f 108/108/108 110/110/110 109/109/109
v 0 68.26563 12
v 0 57 12
v 72 57 12
v 56 68.26563 12
v 0 68.26563 -44
v 0 68.26563 12
v 56 68.26563 12
v 56 68.26563 -44
v -72 57 -44
v -72 57 12
v -56 68.26563 12
v -56 68.26563 -44
v 72 57 12
v 72 57 -44
v 56 68.26563 -44
v 56 68.26563 12
v -72 57 12
v 0 57 12
v 0 68.26563 12
v -56 68.26563 12
v -56 68.26563 12
v 0 68.26563 12
v 0 68.26563 -44
v -56 68.26563 -44
v -40 60 -42
v -40 60 20
v -40 70 20
v -40 70 -42
v 40 60 20
v 40 60 -42
v 40 70 -42
v 40 70 20
vn 0 0 0.9980469
vn 0 0 0.9980469
vn 0 0 0.9980469
vn 0 0 0.9980469
vn 0 0.9980469 0
vn 0 0.9980469 0
vn 0 0.9980469 0
vn 0 0.9980469 0
vn -0.8652344 0.5019531 0
vn -0.8652344 0.5019531 0
vn -0.5507813 0.8359375 0
vn -0.5507813 0.8359375 0
vn 0.8652344 0.5019531 0
vn 0.8652344 0.5019531 0
vn 0.5507813 0.8359375 0
vn 0.5507813 0.8359375 0
vn 0 0 0.9980469
vn 0 0 0.9980469
vn 0 0 0.9980469
vn 0 0 0.9980469
vn 0 0.9980469 0
vn 0 0.9980469 0
vn 0 0.9980469 0
vn 0 0.9980469 0
vn -1 0 0
vn -1 0 0
vn -1 0 0
vn -1 0 0
vn 0.9980469 0 0
vn 0.9980469 0 0
vn 0.9980469 0 0
vn 0.9980469 0 0
vt 0.01171875 -0.4941406
vt 0.9882813 -0.4941406
vt 0.9882813 -0.005859375
vt 0.01171875 -0.005859375
vt 2.525391 0.8212891
vt -1.207031 0.8212891
vt -1.207031 -0.703125
vt 2.525391 -0.703125
vt -1.207031 -1
vt 2.525391 -1
vt 2.525391 -0.703125
vt -1.207031 -0.703125
vt -1.207031 -1
vt 2.525391 -1
vt 2.525391 -0.703125
vt -1.207031 -0.703125
vt 0.9882813 -0.4941406
vt 0.9882813 -0.005859375
vt 0.01171875 -0.005859375
vt 0.01171875 -0.4941406
vt 2.525391 -0.703125
vt 2.525391 0.8212891
vt -1.207031 0.8212891
vt -1.207031 -0.703125
vt 0.2324219 -0.9375
vt 0.2324219 -0.9375
vt 0.2324219 -0.9375
vt 0.2324219 -0.9375
vt 0.2324219 -0.9375
vt 0.2324219 -0.9375
vt 0.2324219 -0.9375
vt 0.2324219 -0.9375
f 111/111/111 112/112/112 113/113/113 114/114/114
f 115/115/115 116/116/116 117/117/117 118/118/118
f 119/119/119 120/120/120 121/121/121 122/122/122
f 123/123/123 124/124/124 125/125/125 126/126/126
f 127/127/127 128/128/128 129/129/129 130/130/130
f 131/131/131 132/132/132 133/133/133 134/134/134
f 135/135/135 136/136/136 137/137/137 138/138/138
f 139/139/139 140/140/140 141/141/141 142/142/142
g polygon7
usemtl c4m_hashira
v -27.17188 43 22.82813
v -26 43 20
v -26 58 20
v -27.17188 58 22.82813
v -30 43 24
v -27.17188 43 22.82813
v -27.17188 58 22.82813
v -30 58 24
v -32.82813 43 22.82813
v -30 43 24
v -30 58 24
v -32.82813 58 22.82813
v -34 43 20
v -32.82813 43 22.82813
v -32.82813 58 22.82813
v -34 58 20
v 32.82813 43 22.82813
v 34 43 20
v 34 58 20
v 32.82813 58 22.82813
v 30 43 24
v 32.82813 43 22.82813
v 32.82813 58 22.82813
v 30 58 24
v 27.17188 43 22.82813
v 30 43 24
v 30 58 24
v 27.17188 58 22.82813
v 26 43 20
v 27.17188 43 22.82813
v 27.17188 58 22.82813
v 26 58 20
v -12.17188 43 22.82813
v -11 43 20
v -11 58 20
v -12.17188 58 22.82813
v -15 43 24
v -12.17188 43 22.82813
v -12.17188 58 22.82813
v -15 58 24
v -17.82813 43 22.82813
v -15 43 24
v -15 58 24
v -17.82813 58 22.82813
v -19 43 20
v -17.82813 43 22.82813
v -17.82813 58 22.82813
v -19 58 20
v 17.82813 43 22.82813
v 19 43 20
v 19 58 20
v 17.82813 58 22.82813
v 15 43 24
v 17.82813 43 22.82813
v 17.82813 58 22.82813
v 15 58 24
v 12.17188 43 22.82813
v 15 43 24
v 15 58 24
v 12.17188 58 22.82813
v 11 43 20
v 12.17188 43 22.82813
v 12.17188 58 22.82813
v 11 58 20
v 2.828125 43 22.82813
v 4 43 20
v 4 58 20
v 2.828125 58 22.82813
v 0 43 24
v 2.828125 43 22.82813
v 2.828125 58 22.82813
v 0 58 24
v -2.828125 43 22.82813
v 0 43 24
v 0 58 24
v -2.828125 58 22.82813
v -4 43 20
v -2.828125 43 22.82813
v -2.828125 58 22.82813
v -4 58 20
v 20 32 33
v 23.46484 32 35
v 23.46484 5 35
v 20 5 33
v 16.53516 32 39
v 16.53516 32 35
v 16.53516 5 35
v 16.53516 5 39
v 20 32 41
v 16.53516 32 39
v 16.53516 5 39
v 20 5 41
v 23.46484 32 39
v 20 32 41
v 20 5 41
v 23.46484 5 39
v 23.46484 32 35
v 23.46484 32 39
v 23.46484 5 39
v 23.46484 5 35
v -17 5 17
v -17 39 17
v -17 39 31
v -17 5 31
v 17 5 31
v 17 39 31
v 17 39 17
v 17 5 17
v -17 6 13
v -17 6 31
v 17 6 31
v 17 6 13
v -23.46484 32 35
v -20 32 33
v -20 5 33
v -23.46484 5 35
v -23.46484 32 39
v -23.46484 32 35
v -23.46484 5 35
v -23.46484 5 39
v -20 32 41
v -23.46484 32 39
v -23.46484 5 39
v -20 5 41
v -16.53516 32 39
v -20 32 41
v -20 5 41
v -16.53516 5 39
v -16.53516 32 35
v -16.53516 32 39
v -16.53516 5 39
v -16.53516 5 35
vn 0.9238281 0 0.3828125
vn 0.9238281 0 0.3828125
vn 0.9238281 0 0.3828125
vn 0.9238281 0 0.3828125
vn 0.3828125 0 0.9238281
vn 0.3828125 0 0.9238281
vn 0.3828125 0 0.9238281
vn 0.3828125 0 0.9238281
vn -0.3828125 0 0.9238281
vn -0.3828125 0 0.9238281
vn -0.3828125 0 0.9238281
vn -0.3828125 0 0.9238281
vn -0.9238281 0 0.3828125
vn -0.9238281 0 0.3828125
vn -0.9238281 0 0.3828125
vn -0.9238281 0 0.3828125
vn 0.9238281 0 0.3828125
vn 0.9238281 0 0.3828125
vn 0.9238281 0 0.3828125
vn 0.9238281 0 0.3828125
vn 0.3828125 0 0.9238281
vn 0.3828125 0 0.9238281
vn 0.3828125 0 0.9238281
vn 0.3828125 0 0.9238281
vn -0.3828125 0 0.9238281
vn -0.3828125 0 0.9238281
vn -0.3828125 0 0.9238281
vn -0.3828125 0 0.9238281
vn -0.9238281 0 0.3828125
vn -0.9238281 0 0.3828125
vn -0.9238281 0 0.3828125
vn -0.9238281 0 0.3828125
vn 0.9238281 0 0.3828125
vn 0.9238281 0 0.3828125
vn 0.9238281 0 0.3828125
vn 0.9238281 0 0.3828125
vn 0.3828125 0 0.9238281
vn 0.3828125 0 0.9238281
vn 0.3828125 0 0.9238281
vn 0.3828125 0 0.9238281
vn -0.3828125 0 0.9238281
vn -0.3828125 0 0.9238281
vn -0.3828125 0 0.9238281
vn -0.3828125 0 0.9238281
vn -0.9238281 0 0.3828125
vn -0.9238281 0 0.3828125
vn -0.9238281 0 0.3828125
vn -0.9238281 0 0.3828125
vn 0.9238281 0 0.3828125
vn 0.9238281 0 0.3828125
vn 0.9238281 0 0.3828125
vn 0.9238281 0 0.3828125
vn 0.3828125 0 0.9238281
vn 0.3828125 0 0.9238281
vn 0.3828125 0 0.9238281
vn 0.3828125 0 0.9238281
vn -0.3828125 0 0.9238281
vn -0.3828125 0 0.9238281
vn -0.3828125 0 0.9238281
vn -0.3828125 0 0.9238281
vn -0.9238281 0 0.3828125
vn -0.9238281 0 0.3828125
vn -0.9238281 0 0.3828125
vn -0.9238281 0 0.3828125
vn 0.9238281 0 0.3828125
vn 0.9238281 0 0.3828125
vn 0.9238281 0 0.3828125
vn 0.9238281 0 0.3828125
vn 0.3828125 0 0.9238281
vn 0.3828125 0 0.9238281
vn 0.3828125 0 0.9238281
vn 0.3828125 0 0.9238281
vn -0.3828125 0 0.9238281
vn -0.3828125 0 0.9238281
vn -0.3828125 0 0.9238281
vn -0.3828125 0 0.9238281
vn -0.9238281 0 0.3828125
vn -0.9238281 0 0.3828125
vn -0.9238281 0 0.3828125
vn -0.9238281 0 0.3828125
vn 0.5 0 -0.8652344
vn 0.5 0 -0.8652344
vn 0.5 0 -0.8652344
vn 0.5 0 -0.8652344
vn -1 0 0
vn -1 0 0
vn -1 0 0
vn -1 0 0
vn -0.5 0 0.8652344
vn -0.5 0 0.8652344
vn -0.5 0 0.8652344
vn -0.5 0 0.8652344
vn 0.5 0 0.8652344
vn 0.5 0 0.8652344
vn 0.5 0 0.8652344
vn 0.5 0 0.8652344
vn 0.9980469 0 0
vn 0.9980469 0 0
vn 0.9980469 0 0
vn 0.9980469 0 0
vn 0.9980469 0 0
vn 0.9980469 0 0
vn 0.9980469 0 0
vn 0.9980469 0 0
vn -1 0 0
vn -1 0 0
vn -1 0 0
vn -1 0 0
vn 0 0.9980469 0
vn 0 0.9980469 0
vn 0 0.9980469 0
vn 0 0.9980469 0
vn -0.5 0 -0.8652344
vn -0.5 0 -0.8652344
vn -0.5 0 -0.8652344
vn -0.5 0 -0.8652344
vn -1 0 0
vn -1 0 0
vn -1 0 0
vn -1 0 0
vn -0.5 0 0.8652344
vn -0.5 0 0.8652344
vn -0.5 0 0.8652344
vn -0.5 0 0.8652344
vn 0.5 0 0.8652344
vn 0.5 0 0.8652344
vn 0.5 0 0.8652344
vn 0.5 0 0.8652344
vn 0.9980469 0 0
vn 0.9980469 0 0
vn 0.9980469 0 0
vn 0.9980469 0 0
vt 0.01757813 -0.9765625
vt 0.25 -0.9765625
vt 0.25 -0.0390625
vt 0.01757813 -0.0390625
vt 0.01757813 -0.9765625
vt 0.25 -0.9765625
vt 0.25 -0.0390625
vt 0.01757813 -0.0390625
vt 0.01757813 -0.9765625
vt 0.25 -0.9765625
vt 0.25 -0.0390625
vt 0.01757813 -0.0390625
vt 0.01757813 -0.9765625
vt 0.25 -0.9765625
vt 0.25 -0.0390625
vt 0.01757813 -0.0390625
vt 0.01757813 -0.9765625
vt 0.25 -0.9765625
vt 0.25 -0.0390625
vt 0.01757813 -0.0390625
vt 0.01757813 -0.9765625
vt 0.25 -0.9765625
vt 0.25 -0.0390625
vt 0.01757813 -0.0390625
vt 0.01757813 -0.9765625
vt 0.25 -0.9765625
vt 0.25 -0.0390625
vt 0.01757813 -0.0390625
vt 0.01757813 -0.9765625
vt 0.25 -0.9765625
vt 0.25 -0.0390625
vt 0.01757813 -0.0390625
vt 0.01757813 -0.9765625
vt 0.25 -0.9765625
vt 0.25 -0.0390625
vt 0.01757813 -0.0390625
vt 0.01757813 -0.9765625
vt 0.25 -0.9765625
vt 0.25 -0.0390625
vt 0.01757813 -0.0390625
vt 0.01757813 -0.9765625
vt 0.25 -0.9765625
vt 0.25 -0.0390625
vt 0.01757813 -0.0390625
vt 0.01757813 -0.9765625
vt 0.25 -0.9765625
vt 0.25 -0.0390625
vt 0.01757813 -0.0390625
vt 0.01757813 -0.9765625
vt 0.25 -0.9765625
vt 0.25 -0.0390625
vt 0.01757813 -0.0390625
vt 0.01757813 -0.9765625
vt 0.25 -0.9765625
vt 0.25 -0.0390625
vt 0.01757813 -0.0390625
vt 0.01757813 -0.9765625
vt 0.25 -0.9765625
vt 0.25 -0.0390625
vt 0.01757813 -0.0390625
vt 0.01757813 -0.9765625
vt 0.25 -0.9765625
vt 0.25 -0.0390625
vt 0.01757813 -0.0390625
vt 0.25 -0.9765625
vt 0.01757813 -0.9765625
vt 0.01757813 -0.0390625
vt 0.25 -0.0390625
vt 0.25 -0.9765625
vt 0.01757813 -0.9765625
vt 0.01757813 -0.0390625
vt 0.25 -0.0390625
vt 0.25 -0.9765625
vt 0.01757813 -0.9765625
vt 0.01757813 -0.0390625
vt 0.25 -0.0390625
vt 0.25 -0.9765625
vt 0.01757813 -0.9765625
vt 0.01757813 -0.0390625
vt 0.25 -0.0390625
vt 0.01757813 -0.0390625
vt 0.25 -0.0390625
vt 0.25 -0.9765625
vt 0.01757813 -0.9765625
vt 0.01757813 -0.0390625
vt 0.25 -0.0390625
vt 0.25 -0.9765625
vt 0.01757813 -0.9765625
vt 0.01757813 -0.0390625
vt 0.25 -0.0390625
vt 0.25 -0.9765625
vt 0.01757813 -0.9765625
vt 0.01757813 -0.0390625
vt 0.25 -0.0390625
vt 0.25 -0.9765625
vt 0.01757813 -0.9765625
vt 0.01757813 -0.0390625
vt 0.25 -0.0390625
vt 0.25 -0.9765625
vt 0.01757813 -0.9765625
vt 0.4648438 -0.984375
vt 0.4648438 -0.984375
vt 0.4648438 -0.015625
vt 0.4648438 -0.015625
vt 0.4648438 -0.015625
vt 0.4648438 -0.015625
vt 0.4648438 -0.984375
vt 0.4648438 -0.984375
vt 0.4648438 -0.984375
vt 0.4648438 -0.015625
vt 0.4648438 -0.015625
vt 0.4648438 -0.984375
vt 0.01757813 -0.0390625
vt 0.25 -0.0390625
vt 0.25 -0.9765625
vt 0.01757813 -0.9765625
vt 0.01757813 -0.0390625
vt 0.25 -0.0390625
vt 0.25 -0.9765625
vt 0.01757813 -0.9765625
vt 0.01757813 -0.0390625
vt 0.25 -0.0390625
vt 0.25 -0.9765625
vt 0.01757813 -0.9765625
vt 0.01757813 -0.0390625
vt 0.25 -0.0390625
vt 0.25 -0.9765625
vt 0.01757813 -0.9765625
vt 0.01757813 -0.0390625
vt 0.25 -0.0390625
vt 0.25 -0.9765625
vt 0.01757813 -0.9765625
f 143/143/143 144/144/144 145/145/145 146/146/146
f 147/147/147 148/148/148 149/149/149 150/150/150
f 151/151/151 152/152/152 153/153/153 154/154/154
f 155/155/155 156/156/156 157/157/157 158/158/158
f 159/159/159 160/160/160 161/161/161 162/162/162
f 163/163/163 164/164/164 165/165/165 166/166/166
f 167/167/167 168/168/168 169/169/169 170/170/170
f 171/171/171 172/172/172 173/173/173 174/174/174
f 175/175/175 176/176/176 177/177/177 178/178/178
f 179/179/179 180/180/180 181/181/181 182/182/182
f 183/183/183 184/184/184 185/185/185 186/186/186
f 187/187/187 188/188/188 189/189/189 190/190/190
f 191/191/191 192/192/192 193/193/193 194/194/194
f 195/195/195 196/196/196 197/197/197 198/198/198
f 199/199/199 200/200/200 201/201/201 202/202/202
f 203/203/203 204/204/204 205/205/205 206/206/206
f 207/207/207 208/208/208 209/209/209 210/210/210
f 211/211/211 212/212/212 213/213/213 214/214/214
f 215/215/215 216/216/216 217/217/217 218/218/218
f 219/219/219 220/220/220 221/221/221 222/222/222
f 223/223/223 224/224/224 225/225/225 226/226/226
f 227/227/227 228/228/228 229/229/229 230/230/230
f 231/231/231 232/232/232 233/233/233 234/234/234
f 235/235/235 236/236/236 237/237/237 238/238/238
f 239/239/239 240/240/240 241/241/241 242/242/242
f 243/243/243 244/244/244 245/245/245 246/246/246
f 247/247/247 248/248/248 249/249/249 250/250/250
f 251/251/251 252/252/252 253/253/253 254/254/254
f 255/255/255 256/256/256 257/257/257 258/258/258
f 259/259/259 260/260/260 261/261/261 262/262/262
f 263/263/263 264/264/264 265/265/265 266/266/266
f 267/267/267 268/268/268 269/269/269 270/270/270
f 271/271/271 272/272/272 273/273/273 274/274/274
g polygon8
usemtl c4m_kabe2
v 72 5 12
v 72 57 12
v 0 5 12
v 0 57 12
v -72 5 12
v -72 57 12
vn 0 0 0.9980469
vn 0 0 0.9980469
vn 0 0 0.9980469
vn 0 0 0.9980469
vn 0 0 0.9980469
vn 0 0 0.9980469
vt 0.5 -1
vt 0.5 -0.078125
vt 1.8125 -1
vt 1.8125 -0.078125
vt 0.5 -1
vt 0.5 -0.078125
f 275/275/275 276/276/276 277/277/277
f 276/276/276 278/278/278 277/277/277
f 277/277/277 278/278/278 279/279/279
f 278/278/278 280/280/280 279/279/279
v 34 58 8
v 34 58 24
v 0 58 8
v 0 58 24
v -34 58 8
v -34 58 24
vn 0 -1 0
vn 0 -1 0
vn 0 -1 0
vn 0 -1 0
vn 0 -1 0
vn 0 -1 0
vt 1 2
vt 1 3
vt 0.5 2
vt 0.5 3
vt 0 2
vt 0 3
f 281/281/281 282/282/282 283/283/283
f 282/282/282 284/284/284 283/283/283
f 283/283/283 284/284/284 285/285/285
f 284/284/284 286/286/286 285/285/285
v 34 58 24
v 34 62 24
v 0 58 24
v -0.01171875 71 24
v -34 58 24
v -34 62 24
vn 0 0 0.9980469
vn 0 0 0.9980469
vn 0 0 0.9980469
vn 0 0 0.9980469
vn 0 0 0.9980469
vn 0 0 0.9980469
vt 0.484375 -0.4404297
vt 0.484375 -0.3125
vt 0 -0.4404297
vt 0 -0.02539063
vt 0.484375 -0.4375
vt 0.484375 -0.3125
f 287/287/287 288/288/288 289/289/289
f 288/288/288 290/290/290 289/289/289
f 289/289/289 290/290/290 291/291/291
f 290/290/290 292/292/292 291/291/291
v -40 60 20
v -40 39 20
v 0 61 20
v 0 39 20
v 40 60 20
v 40 39 20
vn 0 0 0.9980469
vn 0 0 0.9980469
vn 0 0 0.9980469
vn 0 0 0.9980469
vn 0 0 0.9980469
vn 0 0 0.9980469
vt 0.02636719 -0.5927734
vt 0.02636719 -0.6064453
vt 0.046875 -0.5927734
vt 0.046875 -0.6064453
vt 0.06640625 -0.5927734
vt 0.06640625 -0.6064453
f 293/293/293 294/294/294 295/295/295
f 294/294/294 296/296/296 295/295/295
f 295/295/295 296/296/296 297/297/297
f 296/296/296 298/298/298 297/297/297
v -72 5 -44
v -72 5 12
v -72 57 12
v -72 57 -44
v 72 5 12
v 72 5 -44
v 72 57 -44
v 72 57 12
v 40 67 17
v 0 84 17
v 0 88 17
v 40 71 17
v -40 71 17
v 0 88 17
v 0 84 17
v -40 67 17
v -38 55 21
v -38 55 25
v -38 64 25
v -38 64 21
v 38 55 25
v 38 55 21
v 38 64 21
v 38 64 25
v -34 58 8
v -34 58 24
v -34 62 24
v -34 62 8
v 34 58 24
v 34 58 8
v 34 62 8
v 34 62 24
v 21 5 31
v 21 39 31
v 17 39 31
v 17 5 31
v -17 5 31
v -17 39 31
v -21 39 31
v -21 5 31
v 21 5 31
v 21 5 9
v 21 39 9
v 21 39 31
v -21 5 9
v -21 5 31
v -21 39 31
v -21 39 9
v 17 5 17
v 17 39 17
v -17 39 17
v -17 5 17
v -36 37 16
v -36 37 28
v -36 43 28
v -36 43 16
v 36 37 28
v 36 37 16
v 36 43 16
v 36 43 28
v -63.98438 5 9.109375
v -63.98438 5 30.89063
v -63.98438 65 30.89063
v -63.98438 65 9.109375
v -63.98438 5 30.89063
v -42.01563 5 30.89063
v -42.01563 65 30.89063
v -63.98438 65 30.89063
v 63.98438 5 30.89063
v 63.98438 5 9.109375
v 63.98438 65 9.109375
v 63.98438 65 30.89063
v 42.01563 5 30.89063
v 63.98438 5 30.89063
v 63.98438 65 30.89063
v 42.01563 65 30.89063
v 22 5 8
v 22 5 28
v 22 33 28
v 22 33 8
v 42 5 28
v 42 5 8
v 42 33 8
v 42 33 28
v -42 34 16
v -42 34 32
v -42 39 32
v -42 39 16
v 42 34 32
v 42 34 16
v 42 39 16
v 42 39 32
v -42 5 8
v -42 5 28
v -42 33 28
v -42 33 8
v -22 5 28
v -22 5 8
v -22 33 8
v -22 33 28
vn -1 0 0
vn -1 0 0
vn -0.8652344 0.5019531 0
vn -0.8652344 0.5019531 0
vn 0.9980469 0 0
vn 0.9980469 0 0
vn 0.8652344 0.5019531 0
vn 0.8652344 0.5019531 0
vn 0 0 -1
vn 0 0 -1
vn 0 0 -1
vn 0 0 -1
vn 0 0 -1
vn 0 0 -1
vn 0 0 -1
vn 0 0 -1
vn -1 0 0
vn -1 0 0
vn -1 0 0
vn -1 0 0
vn 0.9980469 0 0
vn 0.9980469 0 0
vn 0.9980469 0 0
vn 0.9980469 0 0
vn -1 0 0
vn -1 0 0
vn -1 0 0
vn -1 0 0
vn 0.9980469 0 0
vn 0.9980469 0 0
vn 0.9980469 0 0
vn 0.9980469 0 0
vn 0 0 0.9980469
vn 0 0 0.9980469
vn 0 0 0.9980469
vn 0 0 0.9980469
vn 0 0 0.9980469
vn 0 0 0.9980469
vn 0 0 0.9980469
vn 0 0 0.9980469
vn 0.9980469 0 0
vn 0.9980469 0 0
vn 0.9980469 0 0
vn 0.9980469 0 0
vn -1 0 0
vn -1 0 0
vn -1 0 0
vn -1 0 0
vn 0 0 0.9980469
vn 0 0 0.9980469
vn 0 0 0.9980469
vn 0 0 0.9980469
vn -1 0 0
vn -1 0 0
vn -1 0 0
vn -1 0 0
vn 0.9980469 0 0
vn 0.9980469 0 0
vn 0.9980469 0 0
vn 0.9980469 0 0
vn -1 0 0
vn -1 0 0
vn -0.9902344 0.1328125 0
vn -0.9902344 0.1328125 0
vn 0 0 0.9980469
vn 0 0 0.9980469
vn 0 0.1328125 0.9902344
vn 0 0.1328125 0.9902344
vn 0.9980469 0 0
vn 0.9980469 0 0
vn 0.9902344 0.1328125 0
vn 0.9902344 0.1328125 0
vn 0 0 0.9980469
vn 0 0 0.9980469
vn 0 0.1328125 0.9902344
vn 0 0.1328125 0.9902344
vn -1 0 0
vn -1 0 0
vn -1 0 0
vn -1 0 0
vn 0.9980469 0 0
vn 0.9980469 0 0
vn 0.9980469 0 0
vn 0.9980469 0 0
vn -1 0 0
vn -1 0 0
vn -1 0 0
vn -1 0 0
vn 0.9980469 0 0
vn 0.9980469 0 0
vn 0.9980469 0 0
vn 0.9980469 0 0
vn -1 0 0
vn -1 0 0
vn -1 0 0
vn -1 0 0
vn 0.9980469 0 0
vn 0.9980469 0 0
vn 0.9980469 0 0
vn 0.9980469 0 0
vt 0.5 -1
vt 0.09375 -1
vt 0.09375 -0.5625
vt 0.5 -0.5625
vt 0.5 -1
vt 0.09375 -1
vt 0.09375 -0.5625
vt 0.5 -0.5625
vt 0.5390625 -0.4257813
vt 0.5390625 -0.4257813
vt 0.5390625 0.2070313
vt 0.5390625 0.2070313
vt 0.5390625 -0.4257813
vt 0.5390625 -0.4257813
vt 0.5390625 0.2070313
vt 0.5390625 0.2070313
vt 0.46875 -0.04199219
vt 0.46875 -0.04199219
vt 0.46875 -0.04199219
vt 0.46875 -0.04199219
vt 0.46875 -0.04199219
vt 0.46875 -0.04199219
vt 0.46875 -0.04199219
vt 0.46875 -0.04199219
vt 0.46875 -0.04199219
vt 0.46875 -0.04199219
vt 0.46875 -0.04199219
vt 0.46875 -0.04199219
vt 0.46875 -0.04199219
vt 0.46875 -0.04199219
vt 0.46875 -0.04199219
vt 0.46875 -0.04199219
vt 0.375 -0.0625
vt 0.375 -0.0625
vt 0.375 -0.0625
vt 0.375 -0.0625
vt 0.375 -0.0625
vt 0.375 -0.0625
vt 0.375 -0.0625
vt 0.375 -0.0625
vt 0.4375 -0.25
vt 0.5 -0.25
vt 0.5 0
vt 0.4375 0
vt 0.4375 -0.25
vt 0.5 -0.25
vt 0.5 0
vt 0.4375 0
vt 0.06640625 -0.9609375
vt 0.06640625 -0.9609375
vt 0.06640625 -0.9609375
vt 0.06640625 -0.9609375
vt 0.46875 -0.09375
vt 0.46875 -0.09375
vt 0.46875 -0.09375
vt 0.46875 -0.09375
vt 0.46875 -0.09375
vt 0.46875 -0.09375
vt 0.46875 -0.09375
vt 0.46875 -0.09375
vt 0.5 -1
vt 1 -1
vt 1 0.1572266
vt 0.5 0.1572266
vt 0.5 -1
vt 1 -1
vt 1 0.1572266
vt 0.5 0.1572266
vt 0.5 -1
vt 1 -1
vt 1 0.1572266
vt 0.5 0.1572266
vt 0.5 -1
vt 1 -1
vt 1 0.1572266
vt 0.5 0.1572266
vt 0.8447266 -0.04492188
vt 0.7197266 -0.009765625
vt 0.7197266 -0.1171875
vt 0.8447266 -0.1171875
vt 0.8447266 -0.04492188
vt 0.7197266 -0.009765625
vt 0.7197266 -0.1171875
vt 0.8447266 -0.1171875
vt -1 -1
vt 0 -1
vt 0 0
vt -1 0
vt 1 -1
vt 2 -1
vt 2 0
vt 1 0
vt 0.8447266 -0.04492188
vt 0.7197266 -0.009765625
vt 0.7197266 -0.1171875
vt 0.8447266 -0.1171875
vt 0.8447266 -0.04492188
vt 0.7197266 -0.009765625
vt 0.7197266 -0.1171875
vt 0.8447266 -0.1171875
f 299/299/299 300/300/300 301/301/301 302/302/302
f 303/303/303 304/304/304 305/305/305 306/306/306
f 307/307/307 308/308/308 309/309/309 310/310/310
f 311/311/311 312/312/312 313/313/313 314/314/314
f 315/315/315 316/316/316 317/317/317 318/318/318
f 319/319/319 320/320/320 321/321/321 322/322/322
f 323/323/323 324/324/324 325/325/325 326/326/326
f 327/327/327 328/328/328 329/329/329 330/330/330
f 331/331/331 332/332/332 333/333/333 334/334/334
f 335/335/335 336/336/336 337/337/337 338/338/338
f 339/339/339 340/340/340 341/341/341 342/342/342
f 343/343/343 344/344/344 345/345/345 346/346/346
f 347/347/347 348/348/348 349/349/349 350/350/350
f 351/351/351 352/352/352 353/353/353 354/354/354
f 355/355/355 356/356/356 357/357/357 358/358/358
f 359/359/359 360/360/360 361/361/361 362/362/362
f 363/363/363 364/364/364 365/365/365 366/366/366
f 367/367/367 368/368/368 369/369/369 370/370/370
f 371/371/371 372/372/372 373/373/373 374/374/374
f 375/375/375 376/376/376 377/377/377 378/378/378
f 379/379/379 380/380/380 381/381/381 382/382/382
f 383/383/383 384/384/384 385/385/385 386/386/386
f 387/387/387 388/388/388 389/389/389 390/390/390
f 391/391/391 392/392/392 393/393/393 394/394/394
f 395/395/395 396/396/396 397/397/397 398/398/398
g polygon9
usemtl c4m_kabe_001
v 24.71094 31 42
v 24.71094 31 32
v 22.26563 39.67578 42
v 22.26563 39.67578 32
v 15.40625 46.63672 42
v 15.40625 46.63672 32
v 5.5 50.5 42
v 5.5 50.5 32
v -5.5 50.5 42
v -5.5 50.5 32
v -15.40625 46.63672 42
v -15.40625 46.63672 32
v -22.26563 39.67578 42
v -22.26563 39.67578 32
v -24.71094 31 42
v -24.71094 31 32
vn 0.9628906 0.2714844 0
vn 0.9628906 0.2714844 0
vn 0.8652344 0.5019531 0
vn 0.8652344 0.5019531 0
vn 0.5507813 0.8359375 0
vn 0.5507813 0.8359375 0
vn 0.1855469 0.9824219 0
vn 0.1855469 0.9824219 0
vn -0.1855469 0.9824219 0
vn -0.1855469 0.9824219 0
vn -0.5507813 0.8359375 0
vn -0.5507813 0.8359375 0
vn -0.8652344 0.5019531 0
vn -0.8652344 0.5019531 0
vn -0.9628906 0.2714844 0
vn -0.9628906 0.2714844 0
vt 0.28125 -0.421875
vt 0.28125 -0.015625
vt 0.28125 -0.421875
vt 0.28125 -0.015625
vt 0.28125 -0.421875
vt 0.28125 -0.015625
vt 0.28125 -0.421875
vt 0.28125 -0.015625
vt 0.28125 -0.421875
vt 0.28125 -0.015625
vt 0.28125 -0.421875
vt 0.28125 -0.015625
vt 0.28125 -0.421875
vt 0.28125 -0.015625
vt 0.28125 -0.421875
vt 0.28125 -0.015625
f 399/399/399 400/400/400 401/401/401
f 400/400/400 402/402/402 401/401/401
f 401/401/401 402/402/402 403/403/403
f 402/402/402 404/404/404 403/403/403
f 403/403/403 404/404/404 405/405/405
f 404/404/404 406/406/406 405/405/405
f 405/405/405 406/406/406 407/407/407
f 406/406/406 408/408/408 407/407/407
f 407/407/407 408/408/408 409/409/409
f 408/408/408 410/410/410 409/409/409
f 409/409/409 410/410/410 411/411/411
f 410/410/410 412/412/412 411/411/411
f 411/411/411 412/412/412 413/413/413
f 412/412/412 414/414/414 413/413/413
v 40 71 22
v 40 71 17
v 0 88 22
v 0 88 17
v -40 71 22
v -40 71 17
vn 0.3886719 0.921875 0
vn 0.3886719 0.921875 0
vn 0 0.9980469 0
vn 0 0.9980469 0
vn -0.3886719 0.921875 0
vn -0.3886719 0.921875 0
vt 0.28125 -0.0078125
vt 0.28125 -0.4316406
vt 0.28125 -0.0078125
vt 0.28125 -0.4316406
vt 0.28125 -0.0078125
vt 0.28125 -0.4316406
f 415/415/415 416/416/416 417/417/417
f 416/416/416 418/418/418 417/417/417
f 417/417/417 418/418/418 419/419/419
f 418/418/418 420/420/420 419/419/419
v 38 55 25
v 38 64 25
v 0 71 25
v -0.01171875 80 25
v -38 55 25
v -38 64 25
vn 0 0 0.9980469
vn 0 0 0.9980469
vn 0 0 0.9980469
vn 0 0 0.9980469
vn 0 0 0.9980469
vn 0 0 0.9980469
vt 0.09375 -0.3408203
vt 0.09375 -0.05566406
vt 0.09375 -0.3408203
vt 0.09375 -0.05566406
vt 0.09375 -0.3408203
vt 0.09375 -0.05566406
f 421/421/421 422/422/422 423/423/423
f 422/422/422 424/424/424 423/423/423
f 423/423/423 424/424/424 425/425/425
f 424/424/424 426/426/426 425/425/425
v -40 71 22
v -40 67 22
v 0 88 22
v 0 84 22
v 40 71 22
v 40 67 22
vn 0 0 0.9980469
vn 0 0 0.9980469
vn 0 0 0.9980469
vn 0 0 0.9980469
vn 0 0 0.9980469
vn 0 0 0.9980469
vt 0.08789063 -0.01074219
vt 0.08789063 -0.4248047
vt 0.08789063 -0.01074219
vt 0.08789063 -0.4248047
vt 0.08789063 -0.01074219
vt 0.08789063 -0.4248047
f 427/427/427 428/428/428 429/429/429
f 428/428/428 430/430/430 429/429/429
f 429/429/429 430/430/430 431/431/431
f 430/430/430 432/432/432 431/431/431
v -40 70 20
v -40 60 20
v 0 85 20
v 0 61 20
v 40 70 20
v 40 60 20
vn 0 0 0.9980469
vn 0 0 0.9980469
vn 0 0 0.9980469
vn 0 0 0.9980469
vn 0 0 0.9980469
vn 0 0 0.9980469
vt 0.05664063 -0.5146484
vt 0.05664063 -0.5146484
vt 0.05664063 -0.5146484
vt 0.05664063 -0.5146484
vt 0.05664063 -0.5146484
vt 0.05664063 -0.5146484
f 433/433/433 434/434/434 435/435/435
f 434/434/434 436/436/436 435/435/435
f 435/435/435 436/436/436 437/437/437
f 436/436/436 438/438/438 437/437/437
v -22.26563 39.67578 42
v -24.71094 31 42
v -12.35547 31 42
v -11.13281 35.33984 42
v -15.40625 46.63672 42
v -22.26563 39.67578 42
v -11.13281 35.33984 42
v -7.703125 38.81641 42
v -5.5 50.5 42
v -15.40625 46.63672 42
v -7.703125 38.81641 42
v -2.75 40.75 42
v 5.5 50.5 42
v -5.5 50.5 42
v -2.75 40.75 42
v 2.75 40.75 42
v 15.40625 46.63672 42
v 5.5 50.5 42
v 2.75 40.75 42
v 7.703125 38.81641 42
v 22.26563 39.67578 42
v 15.40625 46.63672 42
v 7.703125 38.81641 42
v 11.13281 35.33984 42
v -40 67 17
v -40 67 22
v -40 71 22
v -40 71 17
v 40 67 22
v 40 67 17
v 40 71 17
v 40 71 22
v 0 71 25
v 0 71 21
v 38 55 21
v 38 55 25
v -0.01171875 80 21
v -0.01171875 80 25
v 38 64 25
v 38 64 21
v -38 55 21
v 0 71 21
v 0 71 25
v -38 55 25
v -38 64 25
v -0.01171875 80 25
v -0.01171875 80 21
v -38 64 21
v -36 43 28
v 36 43 28
v 36 43 16
v -36 43 16
v -36 37 28
v 36 37 28
v 36 43 28
v -36 43 28
v -65.01563 65 7.066406
v -65.01563 57 7.066406
v -65.01563 57 32.93359
v -65.01563 65 32.93359
v -40.98438 65 32.93359
v -40.98438 57 32.93359
v -40.98438 57 7.066406
v -40.98438 65 7.066406
v -65.01563 65 7.066406
v -65.01563 65 32.93359
v -40.98438 65 32.93359
v -40.98438 65 7.066406
v -65.01563 65 32.93359
v -65.01563 57 32.93359
v -40.98438 57 32.93359
v -40.98438 65 32.93359
v -42.01563 5 30.89063
v -42.01563 5 9.109375
v -42.01563 65 9.109375
v -42.01563 65 30.89063
v 40.98438 65 7.066406
v 40.98438 57 7.066406
v 40.98438 57 32.93359
v 40.98438 65 32.93359
v 65.01563 65 32.93359
v 65.01563 57 32.93359
v 65.01563 57 7.066406
v 65.01563 65 7.066406
v 40.98438 65 7.066406
v 40.98438 65 32.93359
v 65.01563 65 32.93359
v 65.01563 65 7.066406
v 40.98438 65 32.93359
v 40.98438 57 32.93359
v 65.01563 57 32.93359
v 65.01563 65 32.93359
v 42.01563 5 9.109375
v 42.01563 5 30.89063
v 42.01563 65 30.89063
v 42.01563 65 9.109375
v 22 5 28
v 42 5 28
v 42 33 28
v 22 33 28
v -42 39 32
v 42 39 32
v 42 39 16
v -42 39 16
v -42 34 32
v 42 34 32
v 42 39 32
v -42 39 32
v 24.71094 31 42
v 22.26563 39.67578 42
v 11.13281 35.33984 42
v 12.35547 31 42
v -42 5 28
v -22 5 28
v -22 33 28
v -42 33 28
vn 0 0 0.9980469
vn 0 0 0.9980469
vn 0 0 0.9980469
vn 0 0 0.9980469
vn 0 0 0.9980469
vn 0 0 0.9980469
vn 0 0 0.9980469
vn 0 0 0.9980469
vn 0 0 0.9980469
vn 0 0 0.9980469
vn 0 0 0.9980469
vn 0 0 0.9980469
vn 0 0 0.9980469
vn 0 0 0.9980469
vn 0 0 0.9980469
vn 0 0 0.9980469
vn 0 0 0.9980469
vn 0 0 0.9980469
vn 0 0 0.9980469
vn 0 0 0.9980469
vn 0 0 0.9980469
vn 0 0 0.9980469
vn 0 0 0.9980469
vn 0 0 0.9980469
vn -1 0 0
vn -1 0 0
vn -1 0 0
vn -1 0 0
vn 0.9980469 0 0
vn 0.9980469 0 0
vn 0.9980469 0 0
vn 0.9980469 0 0
vn 0 -1 0
vn 0 -1 0
vn -0.3886719 -0.921875 0
vn -0.3886719 -0.921875 0
vn 0 0.9980469 0
vn 0 0.9980469 0
vn 0.3886719 0.921875 0
vn 0.3886719 0.921875 0
vn 0.3886719 -0.921875 0
vn 0 -1 0
vn 0 -1 0
vn 0.3886719 -0.921875 0
vn -0.3886719 0.921875 0
vn 0 0.9980469 0
vn 0 0.9980469 0
vn -0.3886719 0.921875 0
vn 0 0.9980469 0
vn 0 0.9980469 0
vn 0 0.9980469 0
vn 0 0.9980469 0
vn 0 0 0.9980469
vn 0 0 0.9980469
vn 0 0 0.9980469
vn 0 0 0.9980469
vn -1 0 0
vn -1 0 0
vn -1 0 0
vn -1 0 0
vn 0.9980469 0 0
vn 0.9980469 0 0
vn 0.9980469 0 0
vn 0.9980469 0 0
vn 0 0.9980469 0
vn 0 0.9980469 0
vn 0 0.9980469 0
vn 0 0.9980469 0
vn 0 0 0.9980469
vn 0 0 0.9980469
vn 0 0 0.9980469
vn 0 0 0.9980469
vn 0.9980469 0 0
vn 0.9980469 0 0
vn 0.9902344 0.1328125 0
vn 0.9902344 0.1328125 0
vn -1 0 0
vn -1 0 0
vn -1 0 0
vn -1 0 0
vn 0.9980469 0 0
vn 0.9980469 0 0
vn 0.9980469 0 0
vn 0.9980469 0 0
vn 0 0.9980469 0
vn 0 0.9980469 0
vn 0 0.9980469 0
vn 0 0.9980469 0
vn 0 0 0.9980469
vn 0 0 0.9980469
vn 0 0 0.9980469
vn 0 0 0.9980469
vn -1 0 0
vn -1 0 0
vn -0.9902344 0.1328125 0
vn -0.9902344 0.1328125 0
vn 0 0 0.9980469
vn 0 0 0.9980469
vn 0 0 0.9980469
vn 0 0 0.9980469
vn 0 0.9980469 0
vn 0 0.9980469 0
vn 0 0.9980469 0
vn 0 0.9980469 0
vn 0 0 0.9980469
vn 0 0 0.9980469
vn 0 0 0.9980469
vn 0 0 0.9980469
vn 0 0 0.9980469
vn 0 0 0.9980469
vn 0 0 0.9980469
vn 0 0 0.9980469
vn 0 0 0.9980469
vn 0 0 0.9980469
vn 0 0 0.9980469
vn 0 0 0.9980469
vt 0.9941406 -0.005859375
vt 0.5371094 -0.005859375
vt 0.5371094 -0.4316406
vt 0.9941406 -0.4316406
vt 0.9941406 -0.005859375
vt 0.5371094 -0.005859375
vt 0.5371094 -0.4316406
vt 0.9941406 -0.4316406
vt 0.9941406 -0.005859375
vt 0.5371094 -0.005859375
vt 0.5371094 -0.4316406
vt 0.9941406 -0.4316406
vt 0.9941406 -0.005859375
vt 0.5371094 -0.005859375
vt 0.5371094 -0.4316406
vt 0.9941406 -0.4316406
vt 0.9941406 -0.005859375
vt 0.5371094 -0.005859375
vt 0.5371094 -0.4316406
vt 0.9941406 -0.4316406
vt 0.9941406 -0.005859375
vt 0.5371094 -0.005859375
vt 0.5371094 -0.4316406
vt 0.9941406 -0.4316406
vt -1 -0.2597656
vt 0 -0.2597656
vt 0 0
vt -1 0
vt 1 -0.2597656
vt 2 -0.2597656
vt 2 0
vt 1 0
vt 0.08789063 -0.05566406
vt 0.08789063 -0.3408203
vt 0.08789063 -0.3408203
vt 0.08789063 -0.05566406
vt 0.28125 -0.4316406
vt 0.28125 -0.0078125
vt 0.28125 -0.0078125
vt 0.28125 -0.4316406
vt 0.08789063 -0.05566406
vt 0.08789063 -0.3408203
vt 0.08789063 -0.3408203
vt 0.08789063 -0.05566406
vt 0.28125 -0.4316406
vt 0.28125 -0.4316406
vt 0.28125 -0.0078125
vt 0.28125 -0.0078125
vt 0.3417969 -0.4257813
vt 0.3417969 -0.4257813
vt 0.3417969 -0.03125
vt 0.3417969 -0.03125
vt 0.09960938 -0.01953125
vt 0.09960938 -0.01953125
vt 0.09960938 -0.1669922
vt 0.09960938 -0.1669922
vt 0.02539063 -0.01757813
vt 0.02539063 -0.4238281
vt 0.02539063 -0.4238281
vt 0.02539063 -0.01757813
vt 0.02539063 -0.01757813
vt 0.02539063 -0.4238281
vt 0.02539063 -0.4238281
vt 0.02539063 -0.01757813
vt 0.02539063 -0.02246094
vt 0.02539063 -0.02246094
vt 0.02539063 -0.02246094
vt 0.02539063 -0.02246094
vt 0.02539063 -0.01757813
vt 0.02539063 -0.4238281
vt 0.02539063 -0.4238281
vt 0.02539063 -0.01757813
vt 0.05273438 -0.5097656
vt 0.05273438 -0.5097656
vt 0.05273438 -0.5097656
vt 0.05273438 -0.5097656
vt 0.02539063 -0.01757813
vt 0.02539063 -0.4238281
vt 0.02539063 -0.4238281
vt 0.02539063 -0.01757813
vt 0.02539063 -0.01757813
vt 0.02539063 -0.4238281
vt 0.02539063 -0.4238281
vt 0.02539063 -0.01757813
vt 0.02539063 -0.02246094
vt 0.02539063 -0.02246094
vt 0.02539063 -0.02246094
vt 0.02539063 -0.02246094
vt 0.02539063 -0.01757813
vt 0.02539063 -0.4238281
vt 0.02539063 -0.4238281
vt 0.02539063 -0.01757813
vt 0.05273438 -0.5097656
vt 0.05273438 -0.5097656
vt 0.05273438 -0.5097656
vt 0.05273438 -0.5097656
vt 0 -1
vt 1 -1
vt 1 -0.46875
vt 0 -0.46875
vt 0.4082031 -0.4257813
vt 0.4082031 -0.4257813
vt 0.4082031 -0.01367188
vt 0.4082031 -0.01367188
vt 0.04296875 -0.4628906
vt 0.04296875 -0.4628906
vt 0.04296875 -0.2910156
vt 0.04296875 -0.2910156
vt 0.9941406 -0.005859375
vt 0.5371094 -0.005859375
vt 0.5371094 -0.4316406
vt 0.9941406 -0.4316406
vt 1 -1
vt 0 -1
vt 0 -0.46875
vt 1 -0.46875
f 439/439/439 440/440/440 441/441/441 442/442/442
f 443/443/443 444/444/444 445/445/445 446/446/446
f 447/447/447 448/448/448 449/449/449 450/450/450
f 451/451/451 452/452/452 453/453/453 454/454/454
f 455/455/455 456/456/456 457/457/457 458/458/458
f 459/459/459 460/460/460 461/461/461 462/462/462
f 463/463/463 464/464/464 465/465/465 466/466/466
f 467/467/467 468/468/468 469/469/469 470/470/470
f 471/471/471 472/472/472 473/473/473 474/474/474
f 475/475/475 476/476/476 477/477/477 478/478/478
f 479/479/479 480/480/480 481/481/481 482/482/482
f 483/483/483 484/484/484 485/485/485 486/486/486
f 487/487/487 488/488/488 489/489/489 490/490/490
f 491/491/491 492/492/492 493/493/493 494/494/494
f 495/495/495 496/496/496 497/497/497 498/498/498
f 499/499/499 500/500/500 501/501/501 502/502/502
f 503/503/503 504/504/504 505/505/505 506/506/506
f 507/507/507 508/508/508 509/509/509 510/510/510
f 511/511/511 512/512/512 513/513/513 514/514/514
f 515/515/515 516/516/516 517/517/517 518/518/518
f 519/519/519 520/520/520 521/521/521 522/522/522
f 523/523/523 524/524/524 525/525/525 526/526/526
f 527/527/527 528/528/528 529/529/529 530/530/530
f 531/531/531 532/532/532 533/533/533 534/534/534
f 535/535/535 536/536/536 537/537/537 538/538/538
f 539/539/539 540/540/540 541/541/541 542/542/542
f 543/543/543 544/544/544 545/545/545 546/546/546
f 547/547/547 548/548/548 549/549/549 550/550/550
f 551/551/551 552/552/552 553/553/553 554/554/554
