# Made in Blockbench 5.1.6
mtllib HOuse.mtl

o mesh
v 0.3125 0.5 0.3125
v 0.3125 0.5 -0.3125
v 0.3125 0 0.3125
v 0.3125 0 -0.3125
v -0.3125 0.5 0.3125
v -0.3125 0.5 -0.3125
v -0.3125 0 0.3125
v -0.3125 0 -0.3125
vt 0.65625 1
vt 0.34375 1
vt 0.34375 0.75
vt 0.65625 0.75
vt 0.65625 0.46875
vt 0.65625 0.71875
vt 0.34375 0.71875
vt 0.34375 0.46875
vt 0 0.6875
vt 0.3125 0.6875
vt 0.3125 1
vt 0 1
vt 0.3125 0.34375
vt 0.3125 0.65625
vt 0 0.65625
vt 0 0.34375
vt 0.65625 0.1875
vt 0.65625 0.4375
vt 0.34375 0.4375
vt 0.34375 0.1875
vt 0.3125 0.3125
vt 0 0.3125
vt 0 0.0625
vt 0.3125 0.0625
vn 1 0 0
vn -1 0 0
vn 0 1 0
vn 0 -1 0
vn 0 0 1
vn 0 0 -1
usemtl m_0440ee16-02e9-8899-7201-db055cb47868
f 2/1/1 1/2/1 3/3/1 4/4/1
f 7/5/2 5/6/2 6/7/2 8/8/2
f 5/9/3 1/10/3 2/11/3 6/12/3
f 4/13/4 3/14/4 7/15/4 8/16/4
f 3/17/5 1/18/5 5/19/5 7/20/5
f 6/21/6 2/22/6 4/23/6 8/24/6
o mesh
v 0.375 0.5 0.375
v 0.375 0.5 -0.375
v 0.375 0.375 0.375
v 0.375 0.375 -0.375
v -0.375 0.5 0.375
v -0.375 0.5 -0.375
v -0.375 0.375 0.375
v -0.375 0.375 -0.375
vt 0.78125 1
vt 0.40625 1
vt 0.40625 0.9375
vt 0.78125 0.9375
vt 0.78125 0.84375
vt 0.78125 0.90625
vt 0.40625 0.90625
vt 0.40625 0.84375
vt 0 0.625
vt 0.375 0.625
vt 0.375 1
vt 0 1
vt 0.375 0.21875
vt 0.375 0.59375
vt 0 0.59375
vt 0 0.21875
vt 0.78125 0.75
vt 0.78125 0.8125
vt 0.40625 0.8125
vt 0.40625 0.75
vt 0.78125 0.71875
vt 0.40625 0.71875
vt 0.40625 0.65625
vt 0.78125 0.65625
vn 1 0 0
vn -1 0 0
vn 0 1 0
vn 0 -1 0
vn 0 0 1
vn 0 0 -1
usemtl m_eecc9c7e-16cb-fe02-2307-2628f8b4886c
f 10/25/7 9/26/7 11/27/7 12/28/7
f 15/29/8 13/30/8 14/31/8 16/32/8
f 13/33/9 9/34/9 10/35/9 14/36/9
f 12/37/10 11/38/10 15/39/10 16/40/10
f 11/41/11 9/42/11 13/43/11 15/44/11
f 14/45/12 10/46/12 12/47/12 16/48/12
o mesh
v -0.25 0.5625 0.375
v -0.25 0.5625 -0.375
v -0.25 0.4375 0.375
v -0.25 0.4375 -0.375
v -0.375 0.5625 0.375
v -0.375 0.5625 -0.375
v -0.375 0.4375 0.375
v -0.375 0.4375 -0.375
vt 0.375 1
vt 0 1
vt 0 0.9375
vt 0.375 0.9375
vt 0.375 0.84375
vt 0.375 0.90625
vt 0 0.90625
vt 0 0.84375
vt 0 0.4375
vt 0.0625 0.4375
vt 0.0625 0.8125
vt 0 0.8125
vt 0.15625 0.4375
vt 0.15625 0.8125
vt 0.09375 0.8125
vt 0.09375 0.4375
vt 0.25 0.75
vt 0.25 0.8125
vt 0.1875 0.8125
vt 0.1875 0.75
vt 0.25 0.71875
vt 0.1875 0.71875
vt 0.1875 0.65625
vt 0.25 0.65625
vn 1 0 0
vn -1 0 0
vn 0 1 0
vn 0 -1 0
vn 0 0 1
vn 0 0 -1
usemtl m_7457d55b-08cd-9a66-360a-92ee98d7eafb
f 18/49/13 17/50/13 19/51/13 20/52/13
f 23/53/14 21/54/14 22/55/14 24/56/14
f 21/57/15 17/58/15 18/59/15 22/60/15
f 20/61/16 19/62/16 23/63/16 24/64/16
f 19/65/17 17/66/17 21/67/17 23/68/17
f 22/69/18 18/70/18 20/71/18 24/72/18
o mesh
v -0.375 0.5625 0.3750000000000001
v 0.375 0.5625 0.3749999999999999
v -0.375 0.4375 0.3750000000000001
v 0.375 0.4375 0.3749999999999999
v -0.375 0.5625 0.2500000000000001
v 0.375 0.5625 0.24999999999999992
v -0.375 0.4375 0.2500000000000001
v 0.375 0.4375 0.24999999999999992
vt 0.375 1
vt 0 1
vt 0 0.9375
vt 0.375 0.9375
vt 0.375 0.84375
vt 0.375 0.90625
vt 0 0.90625
vt 0 0.84375
vt 0 0.4375
vt 0.0625 0.4375
vt 0.0625 0.8125
vt 0 0.8125
vt 0.15625 0.4375
vt 0.15625 0.8125
vt 0.09375 0.8125
vt 0.09375 0.4375
vt 0.25 0.75
vt 0.25 0.8125
vt 0.1875 0.8125
vt 0.1875 0.75
vt 0.25 0.71875
vt 0.1875 0.71875
vt 0.1875 0.65625
vt 0.25 0.65625
vn 2.220446049250313e-16 0 1
vn -2.220446049250313e-16 0 -1
vn 0 1 0
vn 0 -1 0
vn -1 0 2.220446049250313e-16
vn 1 0 -2.220446049250313e-16
usemtl m_ee32a81f-b7ba-97db-ac4d-46828cb42f9e
f 26/73/19 25/74/19 27/75/19 28/76/19
f 31/77/20 29/78/20 30/79/20 32/80/20
f 29/81/21 25/82/21 26/83/21 30/84/21
f 28/85/22 27/86/22 31/87/22 32/88/22
f 27/89/23 25/90/23 29/91/23 31/92/23
f 30/93/24 26/94/24 28/95/24 32/96/24
o mesh
v -0.375 0.5625 -0.24999999999999992
v 0.375 0.5625 -0.2500000000000001
v -0.375 0.4375 -0.24999999999999992
v 0.375 0.4375 -0.2500000000000001
v -0.375 0.5625 -0.3749999999999999
v 0.375 0.5625 -0.3750000000000001
v -0.375 0.4375 -0.3749999999999999
v 0.375 0.4375 -0.3750000000000001
vt 0.375 1
vt 0 1
vt 0 0.9375
vt 0.375 0.9375
vt 0.375 0.84375
vt 0.375 0.90625
vt 0 0.90625
vt 0 0.84375
vt 0 0.4375
vt 0.0625 0.4375
vt 0.0625 0.8125
vt 0 0.8125
vt 0.15625 0.4375
vt 0.15625 0.8125
vt 0.09375 0.8125
vt 0.09375 0.4375
vt 0.25 0.75
vt 0.25 0.8125
vt 0.1875 0.8125
vt 0.1875 0.75
vt 0.25 0.71875
vt 0.1875 0.71875
vt 0.1875 0.65625
vt 0.25 0.65625
vn 2.220446049250313e-16 0 1
vn -2.220446049250313e-16 0 -1
vn 0 1 0
vn 0 -1 0
vn -1 0 2.220446049250313e-16
vn 1 0 -2.220446049250313e-16
usemtl m_4a8e93ed-42cd-847c-d2c2-14613fc5ff92
f 34/97/25 33/98/25 35/99/25 36/100/25
f 39/101/26 37/102/26 38/103/26 40/104/26
f 37/105/27 33/106/27 34/107/27 38/108/27
f 36/109/28 35/110/28 39/111/28 40/112/28
f 35/113/29 33/114/29 37/115/29 39/116/29
f 38/117/30 34/118/30 36/119/30 40/120/30
o mesh
v -0.1875 0.5625 -0.062499999999999986
v -0.062499999999999986 0.5625 -0.06250000000000001
v -0.1875 0.4375 -0.062499999999999986
v -0.062499999999999986 0.4375 -0.06250000000000001
v -0.1875 0.5625 -0.1875
v -0.06250000000000001 0.5625 -0.1875
v -0.1875 0.4375 -0.1875
v -0.06250000000000001 0.4375 -0.1875
vt 0.25 1
vt 0 1
vt 0 0.75
vt 0.25 0.75
vt 0.25 0.375
vt 0.25 0.625
vt 0 0.625
vt 0 0.375
vt 0.375 0.75
vt 0.625 0.75
vt 0.625 1
vt 0.375 1
vt 0.625 0.375
vt 0.625 0.625
vt 0.375 0.625
vt 0.375 0.375
vt 0.25 0
vt 0.25 0.25
vt 0 0.25
vt 0 0
vt 1 1
vt 0.75 1
vt 0.75 0.75
vt 1 0.75
vn 2.220446049250313e-16 0 1
vn -2.220446049250313e-16 0 -1
vn 0 1 0
vn 0 -1 0
vn -1 0 2.220446049250313e-16
vn 1 0 -2.220446049250313e-16
usemtl m_1facaa0f-5d59-12e6-7fb7-159ce53ee398
f 42/121/31 41/122/31 43/123/31 44/124/31
f 47/125/32 45/126/32 46/127/32 48/128/32
f 45/129/33 41/130/33 42/131/33 46/132/33
f 44/133/34 43/134/34 47/135/34 48/136/34
f 43/137/35 41/138/35 45/139/35 47/140/35
f 46/141/36 42/142/36 44/143/36 48/144/36
o mesh
v 0.5 0.5625 0.1875
v 0.5 0.5625 -0.1875
v 0.5 0.4375 0.1875
v 0.5 0.4375 -0.1875
v 0.25 0.5625 0.1875
v 0.25 0.5625 -0.1875
v 0.25 0.4375 0.1875
v 0.25 0.4375 -0.1875
vt 0.375 0.5625
vt 0 0.5625
vt 0 0.4375
vt 0.375 0.4375
vt 0.8125 0.4375
vt 0.8125 0.5625
vt 0.4375 0.5625
vt 0.4375 0.4375
vt 0 0.625
vt 0.25 0.625
vt 0.25 1
vt 0 1
vt 0.5625 0.625
vt 0.5625 1
vt 0.3125 1
vt 0.3125 0.625
vt 0.25 0.25
vt 0.25 0.375
vt 0 0.375
vt 0 0.25
vt 0.875 1
vt 0.625 1
vt 0.625 0.875
vt 0.875 0.875
vn 1 0 0
vn -1 0 0
vn 0 1 0
vn 0 -1 0
vn 0 0 1
vn 0 0 -1
usemtl m_813e7975-0bc5-f8af-d51b-fe92cb5a0302
f 50/145/37 49/146/37 51/147/37 52/148/37
f 55/149/38 53/150/38 54/151/38 56/152/38
f 53/153/39 49/154/39 50/155/39 54/156/39
f 52/157/40 51/158/40 55/159/40 56/160/40
f 51/161/41 49/162/41 53/163/41 55/164/41
f 54/165/42 50/166/42 52/167/42 56/168/42
o mesh
v 0.5006797623942922 0.5625 0.18887842177664066
v 0.5006797623942922 0.4375 0.18887842177664066
v 0.2493202376057077 0.5625 0.31112157822335934
v 0.40151059485788787 0.5625 0.11278324315055055
v 0.2493202376057077 0.4375 0.31112157822335934
v 0.40151059485788787 0.4375 0.11278324315055055
v 0.4837697226996056 0.5625 0.2109160145625083
v 0.4837697226996056 0.4375 0.2109160145625083
v 0.46685968300491887 0.5625 0.23295360734837595
v 0.46685968300491887 0.4375 0.23295360734837595
v 0.44994964331023224 0.5625 0.2549912001342436
v 0.44994964331023224 0.4375 0.2549912001342436
v 0.43303960361554555 0.5625 0.2770287929201112
v 0.43303960361554555 0.4375 0.2770287929201112
v 0.41612956392085887 0.5625 0.2990663857059789
v 0.41612956392085887 0.4375 0.2990663857059789
v 0.3992195242261722 0.5625 0.32110397849184646
v 0.3992195242261722 0.4375 0.32110397849184646
v 0.3823094845314855 0.5625 0.34314157127771416
v 0.3823094845314855 0.4375 0.34314157127771416
v 0.3653994448367988 0.5625 0.36517916406358175
v 0.3653994448367988 0.4375 0.36517916406358175
v 0.3846005551632012 0.5625 0.1348208359364182
v 0.3676905154685145 0.5625 0.15685842872228586
v 0.3507804757738278 0.5625 0.17889602150815348
v 0.33387043607914113 0.5625 0.20093361429402112
v 0.3169603963844545 0.5625 0.22297120707988877
v 0.30005035668976776 0.5625 0.2450087998657564
v 0.2831403169950811 0.5625 0.26704639265162405
v 0.2662302773003944 0.5625 0.2890839854374917
v 0.3846005551632012 0.4375 0.13482083593641822
v 0.3676905154685145 0.4375 0.15685842872228586
v 0.3507804757738278 0.4375 0.1788960215081535
v 0.33387043607914113 0.4375 0.20093361429402112
v 0.31696039638445445 0.4375 0.22297120707988877
v 0.30005035668976776 0.4375 0.2450087998657564
v 0.28314031699508113 0.4375 0.26704639265162405
v 0.2662302773003944 0.4375 0.2890839854374917
vt 0.5 1
vt 0.44445 1
vt 0.44445 0.75
vt 0.5 0.75
vt 0.875 0.375
vt 0.625 0.375
vt 0.625 0.125
vt 0.875 0.125
vt 0.4487875 0.625
vt 0.3932375 0.625
vt 0.3932375 0.375
vt 0.4487875 0.375
vt 0.3932375 0.625
vt 0.337675 0.625
vt 0.337675 0.375
vt 0.3932375 0.375
vt 0.337675 0.625
vt 0.282125 0.625
vt 0.282125 0.375
vt 0.337675 0.375
vt 0.282125 0.625
vt 0.2265625 0.625
vt 0.2265625 0.375
vt 0.282125 0.375
vt 0.2265625 0.625
vt 0.1710125 0.625
vt 0.1710125 0.375
vt 0.2265625 0.375
vt 0.1710125 0.625
vt 0.11545000000000001 0.625
vt 0.11545000000000001 0.375
vt 0.1710125 0.375
vt 0.11545000000000001 0.625
vt 0.05990000000000001 0.625
vt 0.05990000000000001 0.375
vt 0.11545000000000001 0.375
vt 0.05990000000000001 0.625
vt 0.004337499999999994 0.625
vt 0.004337499999999994 0.375
vt 0.05990000000000001 0.375
vt 0.625 1
vt 0.625 0.94445
vt 0.875 0.94445
vt 0.875 1
vt 0.625 0.94445
vt 0.625 0.8888875
vt 0.875 0.8888875
vt 0.875 0.94445
vt 0.625 0.8888875
vt 0.625 0.8333375000000001
vt 0.875 0.8333375000000001
vt 0.875 0.8888875
vt 0.625 0.8333375000000001
vt 0.625 0.777775
vt 0.875 0.777775
vt 0.875 0.8333375000000001
vt 0.625 0.777775
vt 0.625 0.722225
vt 0.875 0.722225
vt 0.875 0.777775
vt 0.625 0.722225
vt 0.625 0.6666624999999999
vt 0.875 0.6666624999999999
vt 0.875 0.722225
vt 0.625 0.6666624999999999
vt 0.625 0.6111125
vt 0.875 0.6111125
vt 0.875 0.6666624999999999
vt 0.625 0.6111125
vt 0.625 0.55555
vt 0.875 0.55555
vt 0.875 0.6111125
vt 0 0.75
vt 0.05554999999999999 0.75
vt 0.05554999999999999 1
vt 0 1
vt 0.05554999999999999 0.75
vt 0.1111125 0.75
vt 0.1111125 1
vt 0.05554999999999999 1
vt 0.1111125 0.75
vt 0.1666625 0.75
vt 0.1666625 1
vt 0.1111125 1
vt 0.1666625 0.75
vt 0.222225 0.75
vt 0.222225 1
vt 0.1666625 1
vt 0.222225 0.75
vt 0.277775 0.75
vt 0.277775 1
vt 0.222225 1
vt 0.277775 0.75
vt 0.3333375 0.75
vt 0.3333375 1
vt 0.277775 1
vt 0.3333375 0.75
vt 0.3888875 0.75
vt 0.3888875 1
vt 0.3333375 1
vt 0.3888875 0.75
vt 0.44445 0.75
vt 0.44445 1
vt 0.3888875 1
vn -0.7933533402912352 -2.220446049250313e-16 -0.6087614290087207
vn 0.6087614290087207 0 -0.7933533402912352
vn 0.7933533402912352 0 0.6087614290087207
vn 0.7933533402912352 0 0.6087614290087207
vn 0.7933533402912352 0 0.6087614290087207
vn 0.7933533402912352 0 0.6087614290087207
vn 0.7933533402912352 0 0.6087614290087207
vn 0.7933533402912352 0 0.6087614290087207
vn 0.7933533402912352 0 0.6087614290087207
vn 0.7933533402912352 0 0.6087614290087207
vn 0 1 0
vn 0 1 0
vn 0 1 0
vn 0 1 0
vn 0 1 0
vn 0 1 0
vn 0 1 0
vn 0 1 0
vn -0.7933533402912352 0 -0.6087614290087207
vn -0.7933533402912352 0 -0.6087614290087207
vn -0.7933533402912352 0 -0.6087614290087207
vn -0.7933533402912352 0 -0.6087614290087207
vn -0.7933533402912352 0 -0.6087614290087207
vn -0.7933533402912352 0 -0.6087614290087207
vn -0.7933533402912352 -1.1102230246251565e-16 -0.6087614290087207
vn -0.7933533402912352 -2.220446049250313e-16 -0.6087614290087207
usemtl m_a0f92259-f732-1315-3749-9a26a59967a5
f 59/169/43 86/170/43 94/171/43 61/172/43
f 60/173/44 57/174/44 58/175/44 62/176/44
f 57/177/45 63/178/45 64/179/45 58/180/45
f 63/181/46 65/182/46 66/183/46 64/184/46
f 65/185/47 67/186/47 68/187/47 66/188/47
f 67/189/48 69/190/48 70/191/48 68/192/48
f 69/193/49 71/194/49 72/195/49 70/196/49
f 71/197/50 73/198/50 74/199/50 72/200/50
f 73/201/51 75/202/51 76/203/51 74/204/51
f 75/205/52 77/206/52 78/207/52 76/208/52
f 60/209/53 79/210/53 63/211/53 57/212/53
f 79/213/54 80/214/54 65/215/54 63/216/54
f 80/217/55 81/218/55 67/219/55 65/220/55
f 81/221/56 82/222/56 69/223/56 67/224/56
f 82/225/57 83/226/57 71/227/57 69/228/57
f 83/229/58 84/230/58 73/231/58 71/232/58
f 84/233/59 85/234/59 75/235/59 73/236/59
f 85/237/60 86/238/60 77/239/60 75/240/60
f 62/241/61 87/242/61 79/243/61 60/244/61
f 87/245/62 88/246/62 80/247/62 79/248/62
f 88/249/63 89/250/63 81/251/63 80/252/63
f 89/253/64 90/254/64 82/255/64 81/256/64
f 90/257/65 91/258/65 83/259/65 82/260/65
f 91/261/66 92/262/66 84/263/66 83/264/66
f 92/265/67 93/266/67 85/267/67 84/268/67
f 93/269/68 94/270/68 86/271/68 85/272/68
o mesh
v 0.375 0.5625 0.3125
v 0.375 0.5625 -0.3125
v 0.375 0.4375 0.375
v 0.375 0.4375 -0.375
v 0.25 0.5625 0.3125
v 0.25 0.5625 -0.3125
v 0.25 0.4375 0.375
v 0.25 0.4375 -0.375
vt 0.34375 1
vt 0.03125 1
vt 0 0.9375
vt 0.375 0.9375
vt 0.375 0.84375
vt 0.34375 0.90625
vt 0.03125 0.90625
vt 0 0.84375
vt 0.09375 0.5
vt 0.15625 0.5
vt 0.15625 0.8125
vt 0.09375 0.8125
vt 0.0625 0.4375
vt 0.0625 0.8125
vt 0 0.8125
vt 0 0.4375
vt 0.25 0.7421875
vt 0.25 0.8125
vt 0.1875 0.8125
vt 0.1875 0.7421875
vt 0.34375 0.8125
vt 0.28125 0.8125
vt 0.28125 0.7421875
vt 0.34375 0.7421875
vn 1 0 0
vn -1 0 0
vn 0 1 0
vn 0 -1 0
vn 0 0.44721359549995804 0.8944271909999161
vn 0 0.44721359549995804 -0.8944271909999161
usemtl m_a7947575-1cb4-1385-1a16-8de7c591acc0
f 96/273/69 95/274/69 97/275/69 98/276/69
f 101/277/70 99/278/70 100/279/70 102/280/70
f 99/281/71 95/282/71 96/283/71 100/284/71
f 98/285/72 97/286/72 101/287/72 102/288/72
f 97/289/73 95/290/73 99/291/73 101/292/73
f 100/293/74 96/294/74 98/295/74 102/296/74
o mesh
v 0.5006797623942922 0.5625 -0.18887842177664066
v 0.5006797623942922 0.4375 -0.18887842177664066
v 0.2493202376057077 0.5625 -0.31112157822335934
v 0.40151059485788787 0.5625 -0.11278324315055055
v 0.2493202376057077 0.4375 -0.31112157822335934
v 0.40151059485788787 0.4375 -0.11278324315055055
v 0.4837697226996056 0.5625 -0.2109160145625083
v 0.4837697226996056 0.4375 -0.2109160145625083
v 0.46685968300491887 0.5625 -0.23295360734837595
v 0.46685968300491887 0.4375 -0.23295360734837595
v 0.44994964331023224 0.5625 -0.2549912001342436
v 0.44994964331023224 0.4375 -0.2549912001342436
v 0.43303960361554555 0.5625 -0.2770287929201112
v 0.43303960361554555 0.4375 -0.2770287929201112
v 0.41612956392085887 0.5625 -0.2990663857059789
v 0.41612956392085887 0.4375 -0.2990663857059789
v 0.3992195242261722 0.5625 -0.32110397849184646
v 0.3992195242261722 0.4375 -0.32110397849184646
v 0.3823094845314855 0.5625 -0.34314157127771416
v 0.3823094845314855 0.4375 -0.34314157127771416
v 0.3653994448367988 0.5625 -0.36517916406358175
v 0.3653994448367988 0.4375 -0.36517916406358175
v 0.3846005551632012 0.5625 -0.1348208359364182
v 0.3676905154685145 0.5625 -0.15685842872228586
v 0.3507804757738278 0.5625 -0.17889602150815348
v 0.33387043607914113 0.5625 -0.20093361429402112
v 0.3169603963844545 0.5625 -0.22297120707988877
v 0.30005035668976776 0.5625 -0.2450087998657564
v 0.2831403169950811 0.5625 -0.26704639265162405
v 0.2662302773003944 0.5625 -0.2890839854374917
v 0.3846005551632012 0.4375 -0.13482083593641822
v 0.3676905154685145 0.4375 -0.15685842872228586
v 0.3507804757738278 0.4375 -0.1788960215081535
v 0.33387043607914113 0.4375 -0.20093361429402112
v 0.31696039638445445 0.4375 -0.22297120707988877
v 0.30005035668976776 0.4375 -0.2450087998657564
v 0.28314031699508113 0.4375 -0.26704639265162405
v 0.2662302773003944 0.4375 -0.2890839854374917
vt 0.05554999999999999 0.75
vt 0.05554999999999999 1
vt 0 1
vt 0 0.75
vt 0.875 0.125
vt 0.875 0.375
vt 0.625 0.375
vt 0.625 0.125
vt 0.05988749999999998 0.375
vt 0.05988749999999998 0.625
vt 0.004337499999999994 0.625
vt 0.004337499999999994 0.375
vt 0.11545 0.375
vt 0.11545 0.625
vt 0.05988749999999998 0.625
vt 0.05988749999999998 0.375
vt 0.17099999999999999 0.375
vt 0.17099999999999999 0.625
vt 0.11545 0.625
vt 0.11545 0.375
vt 0.2265625 0.375
vt 0.2265625 0.625
vt 0.17099999999999999 0.625
vt 0.17099999999999999 0.375
vt 0.2821125 0.375
vt 0.2821125 0.625
vt 0.2265625 0.625
vt 0.2265625 0.375
vt 0.337675 0.375
vt 0.337675 0.625
vt 0.2821125 0.625
vt 0.2821125 0.375
vt 0.393225 0.375
vt 0.393225 0.625
vt 0.337675 0.625
vt 0.337675 0.375
vt 0.4487875 0.375
vt 0.4487875 0.625
vt 0.393225 0.625
vt 0.393225 0.375
vt 0.875 0.6111
vt 0.625 0.6111
vt 0.625 0.55555
vt 0.875 0.55555
vt 0.875 0.6666624999999999
vt 0.625 0.6666624999999999
vt 0.625 0.6111
vt 0.875 0.6111
vt 0.875 0.7222124999999999
vt 0.625 0.7222124999999999
vt 0.625 0.6666624999999999
vt 0.875 0.6666624999999999
vt 0.875 0.777775
vt 0.625 0.777775
vt 0.625 0.7222124999999999
vt 0.875 0.7222124999999999
vt 0.875 0.833325
vt 0.625 0.833325
vt 0.625 0.777775
vt 0.875 0.777775
vt 0.875 0.8888874999999999
vt 0.625 0.8888874999999999
vt 0.625 0.833325
vt 0.875 0.833325
vt 0.875 0.9444375
vt 0.625 0.9444375
vt 0.625 0.8888874999999999
vt 0.875 0.8888874999999999
vt 0.875 1
vt 0.625 1
vt 0.625 0.9444375
vt 0.875 0.9444375
vt 0.44445 1
vt 0.44445 0.75
vt 0.5 0.75
vt 0.5 1
vt 0.3888875 1
vt 0.3888875 0.75
vt 0.44445 0.75
vt 0.44445 1
vt 0.3333375 1
vt 0.3333375 0.75
vt 0.3888875 0.75
vt 0.3888875 1
vt 0.277775 1
vt 0.277775 0.75
vt 0.3333375 0.75
vt 0.3333375 1
vt 0.222225 1
vt 0.222225 0.75
vt 0.277775 0.75
vt 0.277775 1
vt 0.1666625 1
vt 0.1666625 0.75
vt 0.222225 0.75
vt 0.222225 1
vt 0.1111125 1
vt 0.1111125 0.75
vt 0.1666625 0.75
vt 0.1666625 1
vt 0.05554999999999999 1
vt 0.05554999999999999 0.75
vt 0.1111125 0.75
vt 0.1111125 1
vn -0.7933533402912352 -2.220446049250313e-16 0.6087614290087207
vn 0.6087614290087207 0 0.7933533402912352
vn 0.7933533402912352 0 -0.6087614290087207
vn 0.7933533402912352 0 -0.6087614290087207
vn 0.7933533402912352 0 -0.6087614290087207
vn 0.7933533402912352 0 -0.6087614290087207
vn 0.7933533402912352 0 -0.6087614290087207
vn 0.7933533402912352 0 -0.6087614290087207
vn 0.7933533402912352 0 -0.6087614290087207
vn 0.7933533402912352 0 -0.6087614290087207
vn 0 1 0
vn 0 1 0
vn 0 1 0
vn 0 1 0
vn 0 1 0
vn 0 1 0
vn 0 1 0
vn 0 1 0
vn -0.7933533402912352 0 0.6087614290087207
vn -0.7933533402912352 0 0.6087614290087207
vn -0.7933533402912352 0 0.6087614290087207
vn -0.7933533402912352 0 0.6087614290087207
vn -0.7933533402912352 0 0.6087614290087207
vn -0.7933533402912352 0 0.6087614290087207
vn -0.7933533402912352 -1.1102230246251565e-16 0.6087614290087207
vn -0.7933533402912352 -2.220446049250313e-16 0.6087614290087207
usemtl m_1ec2bfc3-ccc2-aac0-e336-0937ebb98596
f 140/297/75 132/298/75 105/299/75 107/300/75
f 104/301/76 103/302/76 106/303/76 108/304/76
f 110/305/77 109/306/77 103/307/77 104/308/77
f 112/309/78 111/310/78 109/311/78 110/312/78
f 114/313/79 113/314/79 111/315/79 112/316/79
f 116/317/80 115/318/80 113/319/80 114/320/80
f 118/321/81 117/322/81 115/323/81 116/324/81
f 120/325/82 119/326/82 117/327/82 118/328/82
f 122/329/83 121/330/83 119/331/83 120/332/83
f 124/333/84 123/334/84 121/335/84 122/336/84
f 109/337/85 125/338/85 106/339/85 103/340/85
f 111/341/86 126/342/86 125/343/86 109/344/86
f 113/345/87 127/346/87 126/347/87 111/348/87
f 115/349/88 128/350/88 127/351/88 113/352/88
f 117/353/89 129/354/89 128/355/89 115/356/89
f 119/357/90 130/358/90 129/359/90 117/360/90
f 121/361/91 131/362/91 130/363/91 119/364/91
f 123/365/92 132/366/92 131/367/92 121/368/92
f 125/369/93 133/370/93 108/371/93 106/372/93
f 126/373/94 134/374/94 133/375/94 125/376/94
f 127/377/95 135/378/95 134/379/95 126/380/95
f 128/381/96 136/382/96 135/383/96 127/384/96
f 129/385/97 137/386/97 136/387/97 128/388/97
f 130/389/98 138/390/98 137/391/98 129/392/98
f 131/393/99 139/394/99 138/395/99 130/396/99
f 132/397/100 140/398/100 139/399/100 131/400/100
o mesh
v 0.5006797623942922 0.5625 -0.18887842177664066
v 0.5006797623942922 0.4375 -0.18887842177664066
v 0.2493202376057077 0.5625 -0.31112157822335934
v 0.40151059485788787 0.5625 -0.11278324315055055
v 0.2493202376057077 0.4375 -0.31112157822335934
v 0.40151059485788787 0.4375 -0.11278324315055055
v 0.4837697226996056 0.5625 -0.2109160145625083
v 0.4837697226996056 0.4375 -0.2109160145625083
v 0.46685968300491887 0.5625 -0.23295360734837595
v 0.46685968300491887 0.4375 -0.23295360734837595
v 0.44994964331023224 0.5625 -0.2549912001342436
v 0.44994964331023224 0.4375 -0.2549912001342436
v 0.43303960361554555 0.5625 -0.2770287929201112
v 0.43303960361554555 0.4375 -0.2770287929201112
v 0.41612956392085887 0.5625 -0.2990663857059789
v 0.41612956392085887 0.4375 -0.2990663857059789
v 0.3992195242261722 0.5625 -0.32110397849184646
v 0.3992195242261722 0.4375 -0.32110397849184646
v 0.3823094845314855 0.5625 -0.34314157127771416
v 0.3823094845314855 0.4375 -0.34314157127771416
v 0.3653994448367988 0.5625 -0.36517916406358175
v 0.3653994448367988 0.4375 -0.36517916406358175
v 0.3846005551632012 0.5625 -0.1348208359364182
v 0.3676905154685145 0.5625 -0.15685842872228586
v 0.3507804757738278 0.5625 -0.17889602150815348
v 0.33387043607914113 0.5625 -0.20093361429402112
v 0.3169603963844545 0.5625 -0.22297120707988877
v 0.30005035668976776 0.5625 -0.2450087998657564
v 0.2831403169950811 0.5625 -0.26704639265162405
v 0.2662302773003944 0.5625 -0.2890839854374917
v 0.3846005551632012 0.4375 -0.13482083593641822
v 0.3676905154685145 0.4375 -0.15685842872228586
v 0.3507804757738278 0.4375 -0.1788960215081535
v 0.33387043607914113 0.4375 -0.20093361429402112
v 0.31696039638445445 0.4375 -0.22297120707988877
v 0.30005035668976776 0.4375 -0.2450087998657564
v 0.28314031699508113 0.4375 -0.26704639265162405
v 0.2662302773003944 0.4375 -0.2890839854374917
vt 0.05554999999999999 0.75
vt 0.05554999999999999 1
vt 0 1
vt 0 0.75
vt 0.875 0.125
vt 0.875 0.375
vt 0.625 0.375
vt 0.625 0.125
vt 0.05988749999999998 0.375
vt 0.05988749999999998 0.625
vt 0.004337499999999994 0.625
vt 0.004337499999999994 0.375
vt 0.11545 0.375
vt 0.11545 0.625
vt 0.05988749999999998 0.625
vt 0.05988749999999998 0.375
vt 0.17099999999999999 0.375
vt 0.17099999999999999 0.625
vt 0.11545 0.625
vt 0.11545 0.375
vt 0.2265625 0.375
vt 0.2265625 0.625
vt 0.17099999999999999 0.625
vt 0.17099999999999999 0.375
vt 0.2821125 0.375
vt 0.2821125 0.625
vt 0.2265625 0.625
vt 0.2265625 0.375
vt 0.337675 0.375
vt 0.337675 0.625
vt 0.2821125 0.625
vt 0.2821125 0.375
vt 0.393225 0.375
vt 0.393225 0.625
vt 0.337675 0.625
vt 0.337675 0.375
vt 0.4487875 0.375
vt 0.4487875 0.625
vt 0.393225 0.625
vt 0.393225 0.375
vt 0.875 0.6111
vt 0.625 0.6111
vt 0.625 0.55555
vt 0.875 0.55555
vt 0.875 0.6666624999999999
vt 0.625 0.6666624999999999
vt 0.625 0.6111
vt 0.875 0.6111
vt 0.875 0.7222124999999999
vt 0.625 0.7222124999999999
vt 0.625 0.6666624999999999
vt 0.875 0.6666624999999999
vt 0.875 0.777775
vt 0.625 0.777775
vt 0.625 0.7222124999999999
vt 0.875 0.7222124999999999
vt 0.875 0.833325
vt 0.625 0.833325
vt 0.625 0.777775
vt 0.875 0.777775
vt 0.875 0.8888874999999999
vt 0.625 0.8888874999999999
vt 0.625 0.833325
vt 0.875 0.833325
vt 0.875 0.9444375
vt 0.625 0.9444375
vt 0.625 0.8888874999999999
vt 0.875 0.8888874999999999
vt 0.875 1
vt 0.625 1
vt 0.625 0.9444375
vt 0.875 0.9444375
vt 0.44445 1
vt 0.44445 0.75
vt 0.5 0.75
vt 0.5 1
vt 0.3888875 1
vt 0.3888875 0.75
vt 0.44445 0.75
vt 0.44445 1
vt 0.3333375 1
vt 0.3333375 0.75
vt 0.3888875 0.75
vt 0.3888875 1
vt 0.277775 1
vt 0.277775 0.75
vt 0.3333375 0.75
vt 0.3333375 1
vt 0.222225 1
vt 0.222225 0.75
vt 0.277775 0.75
vt 0.277775 1
vt 0.1666625 1
vt 0.1666625 0.75
vt 0.222225 0.75
vt 0.222225 1
vt 0.1111125 1
vt 0.1111125 0.75
vt 0.1666625 0.75
vt 0.1666625 1
vt 0.05554999999999999 1
vt 0.05554999999999999 0.75
vt 0.1111125 0.75
vt 0.1111125 1
vn -0.7933533402912352 -2.220446049250313e-16 0.6087614290087207
vn 0.6087614290087207 0 0.7933533402912352
vn 0.7933533402912352 0 -0.6087614290087207
vn 0.7933533402912352 0 -0.6087614290087207
vn 0.7933533402912352 0 -0.6087614290087207
vn 0.7933533402912352 0 -0.6087614290087207
vn 0.7933533402912352 0 -0.6087614290087207
vn 0.7933533402912352 0 -0.6087614290087207
vn 0.7933533402912352 0 -0.6087614290087207
vn 0.7933533402912352 0 -0.6087614290087207
vn 0 1 0
vn 0 1 0
vn 0 1 0
vn 0 1 0
vn 0 1 0
vn 0 1 0
vn 0 1 0
vn 0 1 0
vn -0.7933533402912352 0 0.6087614290087207
vn -0.7933533402912352 0 0.6087614290087207
vn -0.7933533402912352 0 0.6087614290087207
vn -0.7933533402912352 0 0.6087614290087207
vn -0.7933533402912352 0 0.6087614290087207
vn -0.7933533402912352 0 0.6087614290087207
vn -0.7933533402912352 -1.1102230246251565e-16 0.6087614290087207
vn -0.7933533402912352 -2.220446049250313e-16 0.6087614290087207
usemtl m_2be83496-a5aa-e747-2d16-eb094725f521
f 178/401/101 170/402/101 143/403/101 145/404/101
f 142/405/102 141/406/102 144/407/102 146/408/102
f 148/409/103 147/410/103 141/411/103 142/412/103
f 150/413/104 149/414/104 147/415/104 148/416/104
f 152/417/105 151/418/105 149/419/105 150/420/105
f 154/421/106 153/422/106 151/423/106 152/424/106
f 156/425/107 155/426/107 153/427/107 154/428/107
f 158/429/108 157/430/108 155/431/108 156/432/108
f 160/433/109 159/434/109 157/435/109 158/436/109
f 162/437/110 161/438/110 159/439/110 160/440/110
f 147/441/111 163/442/111 144/443/111 141/444/111
f 149/445/112 164/446/112 163/447/112 147/448/112
f 151/449/113 165/450/113 164/451/113 149/452/113
f 153/453/114 166/454/114 165/455/114 151/456/114
f 155/457/115 167/458/115 166/459/115 153/460/115
f 157/461/116 168/462/116 167/463/116 155/464/116
f 159/465/117 169/466/117 168/467/117 157/468/117
f 161/469/118 170/470/118 169/471/118 159/472/118
f 163/473/119 171/474/119 146/475/119 144/476/119
f 164/477/120 172/478/120 171/479/120 163/480/120
f 165/481/121 173/482/121 172/483/121 164/484/121
f 166/485/122 174/486/122 173/487/122 165/488/122
f 167/489/123 175/490/123 174/491/123 166/492/123
f 168/493/124 176/494/124 175/495/124 167/496/124
f 169/497/125 177/498/125 176/499/125 168/500/125
f 170/501/126 178/502/126 177/503/126 169/504/126
o mesh
v 0.4015105948578879 0.4375 -0.11278324315055058
v 0.4015105948578879 0.5625 -0.11278324315055058
v 0.3484894051421122 0.4375 -0.38721675684944945
v 0.5006797623942922 0.4375 -0.18887842177664066
v 0.34848940514211213 0.5625 -0.38721675684944945
v 0.5006797623942922 0.5625 -0.18887842177664066
v 0.38460055516320124 0.4375 -0.13482083593641822
v 0.38460055516320124 0.5625 -0.13482083593641822
v 0.36769051546851456 0.4375 -0.1568584287222859
v 0.3676905154685145 0.5625 -0.15685842872228586
v 0.35078047577382787 0.4375 -0.1788960215081535
v 0.35078047577382787 0.5625 -0.1788960215081535
v 0.3338704360791412 0.4375 -0.20093361429402115
v 0.3338704360791412 0.5625 -0.20093361429402112
v 0.3169603963844545 0.4375 -0.2229712070798888
v 0.3169603963844545 0.5625 -0.22297120707988877
v 0.3000503566897678 0.4375 -0.2450087998657564
v 0.3000503566897678 0.5625 -0.2450087998657564
v 0.28314031699508113 0.4375 -0.26704639265162405
v 0.28314031699508113 0.5625 -0.26704639265162405
v 0.26623027730039445 0.4375 -0.2890839854374917
v 0.26623027730039445 0.5625 -0.2890839854374917
v 0.4837697226996056 0.4375 -0.2109160145625083
v 0.4668596830049189 0.4375 -0.23295360734837595
v 0.44994964331023224 0.4375 -0.2549912001342436
v 0.4330396036155456 0.4375 -0.27702879292011123
v 0.41612956392085887 0.4375 -0.2990663857059789
v 0.39921952422617224 0.4375 -0.3211039784918465
v 0.38230948453148555 0.4375 -0.34314157127771416
v 0.36539944483679887 0.4375 -0.3651791640635818
v 0.4837697226996056 0.5625 -0.2109160145625083
v 0.4668596830049189 0.5625 -0.23295360734837597
v 0.44994964331023224 0.5625 -0.2549912001342436
v 0.43303960361554555 0.5625 -0.27702879292011123
v 0.41612956392085887 0.5625 -0.2990663857059789
v 0.3992195242261722 0.5625 -0.3211039784918465
v 0.3823094845314855 0.5625 -0.34314157127771416
v 0.3653994448367988 0.5625 -0.3651791640635818
vt 0.05554999999999999 0.75
vt 0.05554999999999999 1
vt 0 1
vt 0 0.75
vt 0.875 0.125
vt 0.875 0.375
vt 0.625 0.375
vt 0.625 0.125
vt 0.05988749999999998 0.375
vt 0.05988749999999998 0.625
vt 0.004337499999999994 0.625
vt 0.004337499999999994 0.375
vt 0.11545 0.375
vt 0.11545 0.625
vt 0.05988749999999998 0.625
vt 0.05988749999999998 0.375
vt 0.17099999999999999 0.375
vt 0.17099999999999999 0.625
vt 0.11545 0.625
vt 0.11545 0.375
vt 0.2265625 0.375
vt 0.2265625 0.625
vt 0.17099999999999999 0.625
vt 0.17099999999999999 0.375
vt 0.2821125 0.375
vt 0.2821125 0.625
vt 0.2265625 0.625
vt 0.2265625 0.375
vt 0.337675 0.375
vt 0.337675 0.625
vt 0.2821125 0.625
vt 0.2821125 0.375
vt 0.393225 0.375
vt 0.393225 0.625
vt 0.337675 0.625
vt 0.337675 0.375
vt 0.4487875 0.375
vt 0.4487875 0.625
vt 0.393225 0.625
vt 0.393225 0.375
vt 0.875 0.6111
vt 0.625 0.6111
vt 0.625 0.55555
vt 0.875 0.55555
vt 0.875 0.6666624999999999
vt 0.625 0.6666624999999999
vt 0.625 0.6111
vt 0.875 0.6111
vt 0.875 0.7222124999999999
vt 0.625 0.7222124999999999
vt 0.625 0.6666624999999999
vt 0.875 0.6666624999999999
vt 0.875 0.777775
vt 0.625 0.777775
vt 0.625 0.7222124999999999
vt 0.875 0.7222124999999999
vt 0.875 0.833325
vt 0.625 0.833325
vt 0.625 0.777775
vt 0.875 0.777775
vt 0.875 0.8888874999999999
vt 0.625 0.8888874999999999
vt 0.625 0.833325
vt 0.875 0.833325
vt 0.875 0.9444375
vt 0.625 0.9444375
vt 0.625 0.8888874999999999
vt 0.875 0.8888874999999999
vt 0.875 1
vt 0.625 1
vt 0.625 0.9444375
vt 0.875 0.9444375
vt 0.44445 1
vt 0.44445 0.75
vt 0.5 0.75
vt 0.5 1
vt 0.3888875 1
vt 0.3888875 0.75
vt 0.44445 0.75
vt 0.44445 1
vt 0.3333375 1
vt 0.3333375 0.75
vt 0.3888875 0.75
vt 0.3888875 1
vt 0.277775 1
vt 0.277775 0.75
vt 0.3333375 0.75
vt 0.3333375 1
vt 0.222225 1
vt 0.222225 0.75
vt 0.277775 0.75
vt 0.277775 1
vt 0.1666625 1
vt 0.1666625 0.75
vt 0.222225 0.75
vt 0.222225 1
vt 0.1111125 1
vt 0.1111125 0.75
vt 0.1666625 0.75
vt 0.1666625 1
vt 0.05554999999999999 1
vt 0.05554999999999999 0.75
vt 0.1111125 0.75
vt 0.1111125 1
vn 0.7933533402912352 3.4450928483976665e-16 -0.6087614290087207
vn 0.6087614290087207 1.232595164407831e-32 0.7933533402912352
vn -0.7933533402912352 -1.2246467991473535e-16 0.6087614290087207
vn -0.7933533402912352 -1.2246467991473535e-16 0.6087614290087207
vn -0.7933533402912352 -1.2246467991473535e-16 0.6087614290087207
vn -0.7933533402912352 -1.2246467991473535e-16 0.6087614290087207
vn -0.7933533402912352 -1.2246467991473535e-16 0.6087614290087207
vn -0.7933533402912352 -1.2246467991473535e-16 0.6087614290087207
vn -0.7933533402912352 -1.2246467991473535e-16 0.6087614290087207
vn -0.7933533402912352 -1.2246467991473535e-16 0.6087614290087207
vn 9.71577628780522e-17 -1 -7.455177354798984e-17
vn 9.71577628780522e-17 -1 -7.455177354798984e-17
vn 9.71577628780522e-17 -1 -7.455177354798984e-17
vn 9.71577628780522e-17 -1 -7.455177354798984e-17
vn 9.71577628780522e-17 -1 -7.455177354798984e-17
vn 9.71577628780522e-17 -1 -7.455177354798984e-17
vn 9.71577628780522e-17 -1 -7.455177354798984e-17
vn 9.71577628780522e-17 -1 -7.455177354798984e-17
vn 0.7933533402912352 1.2246467991473535e-16 -0.6087614290087207
vn 0.7933533402912352 1.2246467991473535e-16 -0.6087614290087207
vn 0.7933533402912352 1.2246467991473535e-16 -0.6087614290087207
vn 0.7933533402912352 1.2246467991473535e-16 -0.6087614290087207
vn 0.7933533402912352 1.2246467991473535e-16 -0.6087614290087207
vn 0.7933533402912352 1.2246467991473535e-16 -0.6087614290087207
vn 0.7933533402912352 2.33486982377251e-16 -0.6087614290087207
vn 0.7933533402912352 3.4450928483976665e-16 -0.6087614290087207
usemtl m_b60c39b2-5bc9-00d7-ff81-d1a179aa344e
f 216/505/127 208/506/127 181/507/127 183/508/127
f 180/509/128 179/510/128 182/511/128 184/512/128
f 186/513/129 185/514/129 179/515/129 180/516/129
f 188/517/130 187/518/130 185/519/130 186/520/130
f 190/521/131 189/522/131 187/523/131 188/524/131
f 192/525/132 191/526/132 189/527/132 190/528/132
f 194/529/133 193/530/133 191/531/133 192/532/133
f 196/533/134 195/534/134 193/535/134 194/536/134
f 198/537/135 197/538/135 195/539/135 196/540/135
f 200/541/136 199/542/136 197/543/136 198/544/136
f 185/545/137 201/546/137 182/547/137 179/548/137
f 187/549/138 202/550/138 201/551/138 185/552/138
f 189/553/139 203/554/139 202/555/139 187/556/139
f 191/557/140 204/558/140 203/559/140 189/560/140
f 193/561/141 205/562/141 204/563/141 191/564/141
f 195/565/142 206/566/142 205/567/142 193/568/142
f 197/569/143 207/570/143 206/571/143 195/572/143
f 199/573/144 208/574/144 207/575/144 197/576/144
f 201/577/145 209/578/145 184/579/145 182/580/145
f 202/581/146 210/582/146 209/583/146 201/584/146
f 203/585/147 211/586/147 210/587/147 202/588/147
f 204/589/148 212/590/148 211/591/148 203/592/148
f 205/593/149 213/594/149 212/595/149 204/596/149
f 206/597/150 214/598/150 213/599/150 205/600/150
f 207/601/151 215/602/151 214/603/151 206/604/151
f 208/605/152 216/606/152 215/607/152 207/608/152
o mesh
v 0.4015105948578879 0.4375 0.11278324315055058
v 0.4015105948578879 0.5625 0.11278324315055058
v 0.3484894051421122 0.4375 0.38721675684944945
v 0.5006797623942922 0.4375 0.18887842177664066
v 0.34848940514211213 0.5625 0.38721675684944945
v 0.5006797623942922 0.5625 0.18887842177664066
v 0.38460055516320124 0.4375 0.13482083593641822
v 0.38460055516320124 0.5625 0.13482083593641822
v 0.36769051546851456 0.4375 0.1568584287222859
v 0.3676905154685145 0.5625 0.15685842872228586
v 0.35078047577382787 0.4375 0.1788960215081535
v 0.35078047577382787 0.5625 0.1788960215081535
v 0.3338704360791412 0.4375 0.20093361429402115
v 0.3338704360791412 0.5625 0.20093361429402112
v 0.3169603963844545 0.4375 0.2229712070798888
v 0.3169603963844545 0.5625 0.22297120707988877
v 0.3000503566897678 0.4375 0.2450087998657564
v 0.3000503566897678 0.5625 0.2450087998657564
v 0.28314031699508113 0.4375 0.26704639265162405
v 0.28314031699508113 0.5625 0.26704639265162405
v 0.26623027730039445 0.4375 0.2890839854374917
v 0.26623027730039445 0.5625 0.2890839854374917
v 0.4837697226996056 0.4375 0.2109160145625083
v 0.4668596830049189 0.4375 0.23295360734837595
v 0.44994964331023224 0.4375 0.2549912001342436
v 0.4330396036155456 0.4375 0.27702879292011123
v 0.41612956392085887 0.4375 0.2990663857059789
v 0.39921952422617224 0.4375 0.3211039784918465
v 0.38230948453148555 0.4375 0.34314157127771416
v 0.36539944483679887 0.4375 0.3651791640635818
v 0.4837697226996056 0.5625 0.2109160145625083
v 0.4668596830049189 0.5625 0.23295360734837597
v 0.44994964331023224 0.5625 0.2549912001342436
v 0.43303960361554555 0.5625 0.27702879292011123
v 0.41612956392085887 0.5625 0.2990663857059789
v 0.3992195242261722 0.5625 0.3211039784918465
v 0.3823094845314855 0.5625 0.34314157127771416
v 0.3653994448367988 0.5625 0.3651791640635818
vt 0.5 1
vt 0.44445 1
vt 0.44445 0.75
vt 0.5 0.75
vt 0.875 0.375
vt 0.625 0.375
vt 0.625 0.125
vt 0.875 0.125
vt 0.4487875 0.625
vt 0.3932375 0.625
vt 0.3932375 0.375
vt 0.4487875 0.375
vt 0.3932375 0.625
vt 0.337675 0.625
vt 0.337675 0.375
vt 0.3932375 0.375
vt 0.337675 0.625
vt 0.282125 0.625
vt 0.282125 0.375
vt 0.337675 0.375
vt 0.282125 0.625
vt 0.2265625 0.625
vt 0.2265625 0.375
vt 0.282125 0.375
vt 0.2265625 0.625
vt 0.1710125 0.625
vt 0.1710125 0.375
vt 0.2265625 0.375
vt 0.1710125 0.625
vt 0.11545000000000001 0.625
vt 0.11545000000000001 0.375
vt 0.1710125 0.375
vt 0.11545000000000001 0.625
vt 0.05990000000000001 0.625
vt 0.05990000000000001 0.375
vt 0.11545000000000001 0.375
vt 0.05990000000000001 0.625
vt 0.004337499999999994 0.625
vt 0.004337499999999994 0.375
vt 0.05990000000000001 0.375
vt 0.625 1
vt 0.625 0.94445
vt 0.875 0.94445
vt 0.875 1
vt 0.625 0.94445
vt 0.625 0.8888875
vt 0.875 0.8888875
vt 0.875 0.94445
vt 0.625 0.8888875
vt 0.625 0.8333375000000001
vt 0.875 0.8333375000000001
vt 0.875 0.8888875
vt 0.625 0.8333375000000001
vt 0.625 0.777775
vt 0.875 0.777775
vt 0.875 0.8333375000000001
vt 0.625 0.777775
vt 0.625 0.722225
vt 0.875 0.722225
vt 0.875 0.777775
vt 0.625 0.722225
vt 0.625 0.6666624999999999
vt 0.875 0.6666624999999999
vt 0.875 0.722225
vt 0.625 0.6666624999999999
vt 0.625 0.6111125
vt 0.875 0.6111125
vt 0.875 0.6666624999999999
vt 0.625 0.6111125
vt 0.625 0.55555
vt 0.875 0.55555
vt 0.875 0.6111125
vt 0 0.75
vt 0.05554999999999999 0.75
vt 0.05554999999999999 1
vt 0 1
vt 0.05554999999999999 0.75
vt 0.1111125 0.75
vt 0.1111125 1
vt 0.05554999999999999 1
vt 0.1111125 0.75
vt 0.1666625 0.75
vt 0.1666625 1
vt 0.1111125 1
vt 0.1666625 0.75
vt 0.222225 0.75
vt 0.222225 1
vt 0.1666625 1
vt 0.222225 0.75
vt 0.277775 0.75
vt 0.277775 1
vt 0.222225 1
vt 0.277775 0.75
vt 0.3333375 0.75
vt 0.3333375 1
vt 0.277775 1
vt 0.3333375 0.75
vt 0.3888875 0.75
vt 0.3888875 1
vt 0.3333375 1
vt 0.3888875 0.75
vt 0.44445 0.75
vt 0.44445 1
vt 0.3888875 1
vn 0.7933533402912352 3.4450928483976665e-16 0.6087614290087207
vn 0.6087614290087207 1.232595164407831e-32 -0.7933533402912352
vn -0.7933533402912352 -1.2246467991473535e-16 -0.6087614290087207
vn -0.7933533402912352 -1.2246467991473535e-16 -0.6087614290087207
vn -0.7933533402912352 -1.2246467991473535e-16 -0.6087614290087207
vn -0.7933533402912352 -1.2246467991473535e-16 -0.6087614290087207
vn -0.7933533402912352 -1.2246467991473535e-16 -0.6087614290087207
vn -0.7933533402912352 -1.2246467991473535e-16 -0.6087614290087207
vn -0.7933533402912352 -1.2246467991473535e-16 -0.6087614290087207
vn -0.7933533402912352 -1.2246467991473535e-16 -0.6087614290087207
vn 9.71577628780522e-17 -1 7.455177354798984e-17
vn 9.71577628780522e-17 -1 7.455177354798984e-17
vn 9.71577628780522e-17 -1 7.455177354798984e-17
vn 9.71577628780522e-17 -1 7.455177354798984e-17
vn 9.71577628780522e-17 -1 7.455177354798984e-17
vn 9.71577628780522e-17 -1 7.455177354798984e-17
vn 9.71577628780522e-17 -1 7.455177354798984e-17
vn 9.71577628780522e-17 -1 7.455177354798984e-17
vn 0.7933533402912352 1.2246467991473535e-16 0.6087614290087207
vn 0.7933533402912352 1.2246467991473535e-16 0.6087614290087207
vn 0.7933533402912352 1.2246467991473535e-16 0.6087614290087207
vn 0.7933533402912352 1.2246467991473535e-16 0.6087614290087207
vn 0.7933533402912352 1.2246467991473535e-16 0.6087614290087207
vn 0.7933533402912352 1.2246467991473535e-16 0.6087614290087207
vn 0.7933533402912352 2.33486982377251e-16 0.6087614290087207
vn 0.7933533402912352 3.4450928483976665e-16 0.6087614290087207
usemtl m_04e19f7e-f275-a9da-404f-72cd2f984c58
f 219/609/153 246/610/153 254/611/153 221/612/153
f 220/613/154 217/614/154 218/615/154 222/616/154
f 217/617/155 223/618/155 224/619/155 218/620/155
f 223/621/156 225/622/156 226/623/156 224/624/156
f 225/625/157 227/626/157 228/627/157 226/628/157
f 227/629/158 229/630/158 230/631/158 228/632/158
f 229/633/159 231/634/159 232/635/159 230/636/159
f 231/637/160 233/638/160 234/639/160 232/640/160
f 233/641/161 235/642/161 236/643/161 234/644/161
f 235/645/162 237/646/162 238/647/162 236/648/162
f 220/649/163 239/650/163 223/651/163 217/652/163
f 239/653/164 240/654/164 225/655/164 223/656/164
f 240/657/165 241/658/165 227/659/165 225/660/165
f 241/661/166 242/662/166 229/663/166 227/664/166
f 242/665/167 243/666/167 231/667/167 229/668/167
f 243/669/168 244/670/168 233/671/168 231/672/168
f 244/673/169 245/674/169 235/675/169 233/676/169
f 245/677/170 246/678/170 237/679/170 235/680/170
f 222/681/171 247/682/171 239/683/171 220/684/171
f 247/685/172 248/686/172 240/687/172 239/688/172
f 248/689/173 249/690/173 241/691/173 240/692/173
f 249/693/174 250/694/174 242/695/174 241/696/174
f 250/697/175 251/698/175 243/699/175 242/700/175
f 251/701/176 252/702/176 244/703/176 243/704/176
f 252/705/177 253/706/177 245/707/177 244/708/177
f 253/709/178 254/710/178 246/711/178 245/712/178
o mesh
v 0.34375 0.375 0.15625
v 0.34375 0.375 0.09375
v 0.34375 0 0.15625
v 0.34375 0 0.09375
v 0.28125 0.375 0.15625
v 0.28125 0.375 0.09375
v 0.28125 0 0.15625
v 0.28125 0 0.09375
vt 0.125 1
vt 0 1
vt 0 0.25
vt 0.125 0.25
vt 0.375 0.25
vt 0.375 1
vt 0.25 1
vt 0.25 0.25
vt 0 0
vt 0.125 0
vt 0.125 0.125
vt 0 0.125
vt 0.375 0
vt 0.375 0.125
vt 0.25 0.125
vt 0.25 0
vt 0.625 0.25
vt 0.625 1
vt 0.5 1
vt 0.5 0.25
vt 0.875 1
vt 0.75 1
vt 0.75 0.25
vt 0.875 0.25
vn 1 0 0
vn -1 0 0
vn 0 1 0
vn 0 -1 0
vn 0 0 1
vn 0 0 -1
usemtl m_372015c2-4a2f-cb6a-60d1-1d70b65792e2
f 256/713/179 255/714/179 257/715/179 258/716/179
f 261/717/180 259/718/180 260/719/180 262/720/180
f 259/721/181 255/722/181 256/723/181 260/724/181
f 258/725/182 257/726/182 261/727/182 262/728/182
f 257/729/183 255/730/183 259/731/183 261/732/183
f 260/733/184 256/734/184 258/735/184 262/736/184
o mesh
v 0.34375 0.375 -0.09375
v 0.34375 0.375 -0.15625
v 0.34375 0 -0.09375
v 0.34375 0 -0.15625
v 0.28125 0.375 -0.09375
v 0.28125 0.375 -0.15625
v 0.28125 0 -0.09375
v 0.28125 0 -0.15625
vt 0.125 1
vt 0 1
vt 0 0.25
vt 0.125 0.25
vt 0.375 0.25
vt 0.375 1
vt 0.25 1
vt 0.25 0.25
vt 0 0
vt 0.125 0
vt 0.125 0.125
vt 0 0.125
vt 0.375 0
vt 0.375 0.125
vt 0.25 0.125
vt 0.25 0
vt 0.625 0.25
vt 0.625 1
vt 0.5 1
vt 0.5 0.25
vt 0.875 1
vt 0.75 1
vt 0.75 0.25
vt 0.875 0.25
vn 1 0 0
vn -1 0 0
vn 0 1 0
vn 0 -1 0
vn 0 0 1
vn 0 0 -1
usemtl m_d9ac7bbf-53b0-dfed-c4ab-f93698aeec7d
f 264/737/185 263/738/185 265/739/185 266/740/185
f 269/741/186 267/742/186 268/743/186 270/744/186
f 267/745/187 263/746/187 264/747/187 268/748/187
f 266/749/188 265/750/188 269/751/188 270/752/188
f 265/753/189 263/754/189 267/755/189 269/756/189
f 268/757/190 264/758/190 266/759/190 270/760/190
o mesh
v 0.34375 0.1562500000000001 0.3125
v 0.34375 0.2187500000000001 0.3125
v 0.34375 0.15625 -0.3125
v 0.34375 0.21875 -0.3125
v 0.28125 0.1562500000000001 0.3125
v 0.28125 0.2187500000000001 0.3125
v 0.28125 0.15625 -0.3125
v 0.28125 0.21875 -0.3125
vt 0.0625 1
vt 0 1
vt 0 0.375
vt 0.0625 0.375
vt 0.1875 0.375
vt 0.1875 1
vt 0.125 1
vt 0.125 0.375
vt 0.5 0.9375
vt 0.5625 0.9375
vt 0.5625 1
vt 0.5 1
vt 0.5625 0.8125
vt 0.5625 0.875
vt 0.5 0.875
vt 0.5 0.8125
vt 0.3125 0.375
vt 0.3125 1
vt 0.25 1
vt 0.25 0.375
vt 0.4375 1
vt 0.375 1
vt 0.375 0.375
vt 0.4375 0.375
vn 1 0 0
vn -1 0 0
vn 0 2.220446049250313e-16 1
vn 0 -2.220446049250313e-16 -1
vn 0 -1 2.220446049250313e-16
vn 0 1 -2.220446049250313e-16
usemtl m_dc7c60cd-7635-4537-78b4-7e872706dc11
f 272/761/191 271/762/191 273/763/191 274/764/191
f 277/765/192 275/766/192 276/767/192 278/768/192
f 275/769/193 271/770/193 272/771/193 276/772/193
f 274/773/194 273/774/194 277/775/194 278/776/194
f 273/777/195 271/778/195 275/779/195 277/780/195
f 276/781/196 272/782/196 274/783/196 278/784/196
o mesh
v 0.40625 0.15625000000000008 0.125
v 0.40625 0.21875000000000008 0.125
v 0.40625 0.15625000000000003 -0.125
v 0.40625 0.21875000000000003 -0.125
v 0.21875 0.15625000000000008 0.125
v 0.21875 0.21875000000000008 0.125
v 0.21875 0.15625000000000003 -0.125
v 0.21875 0.21875000000000003 -0.125
vt 0.0625 0.6875
vt 0 0.6875
vt 0 0.4375
vt 0.0625 0.4375
vt 0.1875 0.4375
vt 0.1875 0.6875
vt 0.125 0.6875
vt 0.125 0.4375
vt 0.25 0.625
vt 0.4375 0.625
vt 0.4375 0.6875
vt 0.25 0.6875
vt 0.4375 0.5
vt 0.4375 0.5625
vt 0.25 0.5625
vt 0.25 0.5
vt 0.1875 0.75
vt 0.1875 1
vt 0 1
vt 0 0.75
vt 0.4375 1
vt 0.25 1
vt 0.25 0.75
vt 0.4375 0.75
vn 1 0 0
vn -1 0 0
vn 0 2.220446049250313e-16 1
vn 0 -2.220446049250313e-16 -1
vn 0 -1 2.220446049250313e-16
vn 0 1 -2.220446049250313e-16
usemtl m_e284ad05-1518-4c62-6c26-5a5cab38aa7c
f 280/785/197 279/786/197 281/787/197 282/788/197
f 285/789/198 283/790/198 284/791/198 286/792/198
f 283/793/199 279/794/199 280/795/199 284/796/199
f 282/797/200 281/798/200 285/799/200 286/800/200
f 281/801/201 279/802/201 283/803/201 285/804/201
f 284/805/202 280/806/202 282/807/202 286/808/202